<svg xmlns="http://www.w3.org/2000/svg" xmlns:xlink="http://www.w3.org/1999/xlink" width="500" zoomAndPan="magnify" viewBox="0 0 375 374.999991" height="500" preserveAspectRatio="xMidYMid meet" version="1.0"><defs><clipPath id="a3e522e4db"><path d="M 272.398438 49.117188 L 375 49.117188 L 375 311.855469 L 272.398438 311.855469 Z M 272.398438 49.117188 " clip-rule="nonzero"/></clipPath></defs><path fill="#ffffff" d="M 144.011719 236.355469 L 143.679688 236.628906 L 144.460938 179.824219 L 145.933594 177.949219 L 149.53125 220.222656 L 149.84375 220.367188 Z M 173.269531 159.476562 L 162.785156 149.671875 L 122.71875 150.125 L 116.609375 159.089844 L 113.09375 162.109375 L 120.257812 205.453125 L 125.15625 268.316406 C 125.15625 268.316406 131.210938 274.71875 141.945312 269.957031 L 143.179688 270.199219 L 143.40625 256.332031 C 147.101562 262.15625 156.398438 255.253906 156.398438 255.253906 L 166.199219 226.851562 L 166.410156 226.253906 L 173.269531 159.476562 " fill-opacity="1" fill-rule="nonzero"/><path fill="#100f0d" d="M 118.296875 146.808594 L 165.574219 146.808594 L 165.574219 150.652344 L 118.296875 150.652344 L 118.296875 146.808594 " fill-opacity="1" fill-rule="nonzero"/><path fill="#59c1b4" d="M 149.363281 73.011719 L 158.035156 77.613281 C 158.035156 77.613281 186.007812 79.644531 188.949219 117.261719 C 191.890625 154.871094 171.378906 160.226562 171.378906 160.226562 C 165.726562 160.601562 162.332031 146.730469 162.332031 146.730469 L 122.445312 147.257812 C 122.671875 155.925781 112.492188 161.28125 112.492188 161.28125 C 100.578125 159.320312 96.128906 131.65625 100.957031 107.007812 C 105.78125 82.359375 127.875 78.214844 127.875 78.214844 L 133.984375 74.371094 L 149.363281 73.011719 " fill-opacity="1" fill-rule="nonzero"/><path fill="#100f0d" d="M 172.359375 109.269531 C 170.398438 112.738281 168.96875 115.976562 167.914062 119.070312 C 164.972656 103.164062 173.492188 85.902344 173.570312 85.753906 L 172.886719 85.375 C 172.8125 85.601562 163.613281 103.992188 167.382812 120.5 C 163.988281 131.429688 165.5 139.195312 165.800781 140.476562 C 162.480469 145.601562 161.804688 148.464844 162.03125 150.125 C 162.257812 149.898438 162.480469 149.746094 162.785156 149.671875 C 162.785156 148.238281 163.460938 145.601562 166.554688 140.851562 L 166.628906 140.703125 L 166.628906 140.550781 C 166.628906 140.402344 163.164062 127.210938 173.039062 109.796875 Z M 157.582031 80.328125 L 156.828125 80.550781 C 157.429688 82.8125 155.847656 95.851562 154.941406 96.53125 C 154.113281 96.605469 148.308594 92.988281 143.105469 89.371094 L 142.878906 89.21875 L 142.652344 89.371094 C 139.9375 91.101562 132.472656 95.625 130.589844 95.402344 C 129.304688 95.25 128.628906 87.710938 128.703125 80.855469 L 127.949219 80.855469 C 127.875 84.320312 127.949219 95.851562 130.511719 96.15625 C 131.945312 96.304688 135.714844 94.421875 138.730469 92.6875 L 140.84375 97.738281 C 140.84375 97.738281 134.582031 134.292969 136.019531 137.234375 C 137.449219 140.097656 141.824219 145.152344 142.804688 144.847656 C 143.785156 144.546875 148.835938 139.648438 149.136719 137.535156 C 149.441406 135.425781 144.988281 97.058594 144.988281 97.058594 L 146.648438 92.835938 C 149.96875 95.023438 153.8125 97.359375 154.941406 97.359375 C 155.019531 97.359375 155.09375 97.359375 155.09375 97.359375 C 156.902344 96.683594 157.957031 81.90625 157.582031 80.328125 Z M 119.878906 133.539062 L 121.464844 113.714844 C 123.425781 100.980469 113.546875 88.164062 113.398438 88.015625 L 112.792969 88.464844 C 112.871094 88.617188 122.59375 101.207031 120.710938 113.566406 L 119.203125 131.65625 C 114.980469 119.824219 109.628906 119.898438 109.324219 119.898438 L 109.324219 120.652344 C 109.476562 120.652344 119.050781 120.726562 122.445312 151.179688 L 122.972656 149.144531 C 122.21875 141.757812 121.238281 137.914062 119.878906 133.539062 Z M 134.433594 145.675781 L 134.132812 146.355469 L 139.109375 148.617188 L 140.917969 148.617188 Z M 163.539062 115.527344 C 163.539062 116.808594 162.480469 117.789062 161.277344 117.789062 L 155.546875 117.789062 C 154.265625 117.789062 153.285156 116.808594 153.285156 115.527344 L 153.285156 105.046875 C 153.285156 103.765625 154.265625 102.785156 155.546875 102.785156 L 161.277344 102.785156 C 162.480469 102.785156 163.539062 103.765625 163.539062 105.046875 Z M 161.277344 102.03125 L 155.546875 102.03125 C 153.886719 102.03125 152.53125 103.390625 152.53125 105.046875 L 152.53125 115.527344 C 152.53125 117.183594 153.886719 118.542969 155.546875 118.542969 L 161.277344 118.542969 C 162.9375 118.542969 164.292969 117.183594 164.292969 115.527344 L 164.292969 105.046875 C 164.292969 103.390625 162.9375 102.03125 161.277344 102.03125 " fill-opacity="1" fill-rule="nonzero"/><path fill="#ffffff" d="M 145.367188 97.285156 L 141.746094 97.285156 L 141.746094 96.53125 L 144.839844 96.53125 L 146.574219 92.234375 L 147.25 92.535156 L 145.367188 97.285156 " fill-opacity="1" fill-rule="nonzero"/><path fill="#ffffff" d="M 139.035156 147.257812 L 149.136719 147.257812 L 149.136719 150.878906 L 139.035156 150.878906 L 139.035156 147.257812 " fill-opacity="1" fill-rule="nonzero"/><path fill="#100f0d" d="M 139.410156 150.5 L 148.757812 150.5 L 148.757812 147.636719 L 139.410156 147.636719 Z M 149.511719 151.253906 L 138.65625 151.253906 L 138.65625 146.882812 L 149.511719 146.882812 L 149.511719 151.253906 " fill-opacity="1" fill-rule="nonzero"/><path fill="#59c1b4" d="M 140.542969 270.953125 L 140.238281 279.09375 L 127.722656 278.640625 L 127.195312 270.125 C 132.472656 273.441406 140.542969 270.953125 140.542969 270.953125 " fill-opacity="1" fill-rule="nonzero"/><path fill="#100f0d" d="M 128.023438 278.191406 L 139.789062 278.640625 L 140.089844 271.40625 C 138.28125 271.855469 132.171875 273.214844 127.574219 270.726562 Z M 140.542969 279.394531 L 127.347656 278.945312 L 126.742188 269.371094 L 127.347656 269.75 C 132.398438 272.988281 140.238281 270.574219 140.316406 270.503906 L 140.84375 270.347656 L 140.542969 279.394531 " fill-opacity="1" fill-rule="nonzero"/><path fill="#100f0d" d="M 152.605469 280.453125 C 147.328125 281.503906 144.160156 280.828125 142.652344 276.683594 C 142.953125 278.265625 143.40625 280.828125 144.085938 284.671875 C 146.421875 297.484375 149.136719 311.050781 133 311.050781 C 118.75 311.050781 121.542969 292.285156 123.726562 285.273438 C 125.914062 278.339844 124.558594 274.421875 125.839844 274.421875 C 127.121094 274.421875 128.023438 277.4375 128.023438 277.4375 C 132.472656 272.535156 139.636719 277.4375 139.636719 277.4375 C 140.015625 275.25 141.296875 274.34375 141.898438 274.117188 C 141.746094 273.140625 141.597656 272.082031 141.523438 270.878906 L 142.726562 269.75 L 143.03125 256.78125 C 143.03125 256.78125 148.003906 260.925781 155.019531 256.332031 C 155.09375 256.332031 159.691406 279.015625 152.605469 280.453125 " fill-opacity="1" fill-rule="nonzero"/><path fill="#ffffff" d="M 151.398438 273.894531 C 152.152344 273.816406 152.832031 273.515625 153.359375 272.835938 C 156.148438 269.371094 154.1875 258.140625 154.113281 257.613281 L 153.359375 257.761719 C 153.359375 257.910156 155.320312 269.21875 152.757812 272.386719 C 152.378906 272.835938 151.925781 273.140625 151.324219 273.140625 C 149.136719 273.214844 147.703125 273.289062 146.648438 272.308594 C 145.066406 270.726562 144.386719 266.582031 144.539062 257.988281 L 143.785156 257.988281 C 143.707031 266.957031 144.3125 271.101562 146.121094 272.835938 C 147.101562 273.742188 148.308594 273.96875 149.664062 273.96875 C 150.265625 273.96875 150.792969 273.96875 151.398438 273.894531 Z M 132.171875 303.0625 C 130.589844 303.0625 129.230469 302.6875 128.175781 301.707031 C 125.613281 299.144531 125.460938 292.585938 127.648438 278.867188 L 128.402344 279.015625 C 126.214844 292.285156 126.289062 298.917969 128.703125 301.179688 C 130.210938 302.609375 132.625 302.539062 136.546875 301.785156 C 137.828125 301.558594 138.808594 300.804688 139.5625 299.671875 C 143.179688 293.941406 139.335938 279.246094 139.335938 279.09375 L 140.089844 278.867188 C 140.238281 279.472656 144.085938 294.019531 140.238281 300.050781 C 139.410156 301.40625 138.203125 302.234375 136.695312 302.539062 C 135.035156 302.835938 133.527344 303.0625 132.171875 303.0625 " fill-opacity="1" fill-rule="nonzero"/><path fill="#100f0d" d="M 156.226562 221.355469 L 154.492188 217.511719 L 155.167969 217.207031 L 156.902344 221.054688 Z M 142.425781 173.71875 L 141.597656 150.953125 L 142.351562 150.953125 L 143.179688 173.71875 Z M 162.707031 150.578125 L 163.460938 150.351562 C 163.460938 150.425781 166.628906 160.375 171.003906 159.847656 L 171.078125 160.375 L 171.152344 160.375 L 170.25 167.234375 L 169.496094 167.160156 L 170.398438 160.601562 C 165.800781 160.226562 162.859375 150.953125 162.707031 150.578125 Z M 144.460938 179.824219 L 145.515625 178.539062 L 149.136719 220.828125 L 143.707031 236.355469 Z M 172.585938 159.472656 C 172.511719 160.074219 167.835938 220.148438 165.199219 229.269531 C 162.636719 238.089844 156.148438 253.617188 155.621094 254.746094 C 155.246094 255.199219 152.003906 258.289062 148.308594 258.367188 C 146.496094 258.367188 144.914062 257.6875 143.40625 256.332031 L 143.632812 238.769531 L 149.890625 220.976562 L 146.195312 177.785156 L 152.90625 169.570312 L 152.304688 169.117188 L 143.859375 179.519531 L 143.785156 179.597656 L 142.726562 256.558594 L 142.578125 269.671875 C 133.074219 274.195312 126.140625 269.070312 125.15625 268.316406 L 120.257812 205.453125 L 113.09375 162.109375 C 122.296875 156.378906 123.199219 149.070312 123.273438 148.765625 L 122.519531 148.691406 C 122.519531 148.765625 121.542969 156.003906 112.492188 161.582031 L 112.265625 161.734375 L 119.503906 205.601562 L 124.402344 268.691406 L 124.558594 268.769531 C 124.632812 268.839844 128.550781 272.234375 134.808594 272.234375 C 137.300781 272.234375 140.089844 271.707031 143.179688 270.199219 L 143.40625 270.125 L 143.558594 257.386719 C 144.988281 258.59375 146.648438 259.195312 148.382812 259.195312 L 148.460938 259.195312 C 152.757812 259.121094 156.226562 255.425781 156.375 255.273438 L 156.449219 255.199219 C 156.527344 255.050781 163.390625 238.691406 166.027344 229.570312 C 168.667969 220.375 173.265625 162.109375 173.414062 159.621094 L 172.585938 159.472656 " fill-opacity="1" fill-rule="nonzero"/><path fill="#100f0d" d="M 69.289062 269.820312 L 74.035156 291.15625 C 71.925781 308.492188 65.816406 308.792969 59.785156 308.113281 C 53.675781 307.4375 50.964844 292.058594 50.964844 292.058594 L 56.015625 270.199219 L 54.507812 264.621094 C 52.394531 257.6875 56.917969 257.3125 66.117188 256.78125 C 75.394531 256.253906 71.621094 264.621094 71.621094 264.621094 L 69.289062 269.820312 " fill-opacity="1" fill-rule="nonzero"/><path fill="#b56951" d="M 59.332031 235.527344 L 57.523438 257.988281 L 51.640625 257.988281 L 46.289062 235.527344 L 59.332031 235.527344 " fill-opacity="1" fill-rule="nonzero"/><path fill="#100f0d" d="M 66.570312 253.164062 L 59.410156 297.035156 C 59.410156 297.035156 47.722656 286.027344 46.289062 283.316406 C 44.855469 280.601562 50.285156 262.359375 50.285156 262.359375 C 50.285156 262.359375 50.886719 262.886719 48.097656 257.988281 C 45.230469 253.089844 50.285156 252.257812 50.285156 252.257812 L 50.359375 252.257812 C 51.640625 253.917969 53.601562 255.050781 55.863281 255.050781 C 57.824219 255.050781 59.636719 254.21875 60.917969 252.863281 L 66.570312 253.164062 " fill-opacity="1" fill-rule="nonzero"/><path fill="#ffffff" d="M 51.945312 289.421875 L 51.191406 289.269531 L 55.339844 271.03125 C 54.734375 269.671875 51.414062 262.210938 52.472656 259.949219 C 53.527344 257.535156 57.375 257.613281 57.523438 257.613281 L 57.523438 258.367188 C 57.523438 258.367188 54.054688 258.367188 53.148438 260.328125 C 52.394531 261.984375 55.035156 268.542969 56.09375 270.878906 L 56.164062 271.03125 L 51.945312 289.421875 " fill-opacity="1" fill-rule="nonzero"/><path fill="#b56951" d="M 73.28125 236.507812 L 68.15625 262.210938 C 68.15625 262.210938 59.9375 266.355469 57.824219 261.152344 L 57.902344 239.066406 L 73.28125 236.507812 " fill-opacity="1" fill-rule="nonzero"/><path fill="#b56951" d="M 84.746094 125.777344 C 88.210938 127.8125 94.695312 123.515625 94.695312 123.515625 C 97.035156 135.726562 80.597656 151.332031 80.597656 151.332031 L 78.109375 145.675781 L 84.519531 126.078125 L 84.746094 125.777344 " fill-opacity="1" fill-rule="nonzero"/><path fill="#100f0d" d="M 79.992188 141.078125 L 79.3125 140.851562 L 84.441406 125.703125 L 85.121094 125.929688 L 79.992188 141.078125 " fill-opacity="1" fill-rule="nonzero"/><path fill="#59c1b4" d="M 75.242188 128.792969 C 75.242188 128.792969 90.851562 146.957031 82.179688 230.097656 C 82.179688 230.097656 64.308594 249.320312 41.914062 234.695312 C 41.914062 234.695312 19.296875 153.066406 37.542969 128.414062 L 75.242188 128.792969 " fill-opacity="1" fill-rule="nonzero"/><path fill="#100f0d" d="M 94.773438 123.441406 L 94.695312 123.589844 C 94.695312 123.667969 91.90625 126.90625 87.910156 126.90625 C 86.851562 126.90625 85.722656 126.683594 84.519531 126.152344 L 84.367188 126.078125 L 80.292969 107.085938 C 77.730469 114.394531 73.507812 120.125 72.753906 121.105469 L 75.46875 129.394531 L 37.617188 128.492188 L 41.085938 118.390625 L 35.507812 97.738281 L 25.703125 120.050781 L 12.054688 120.726562 L 12.28125 120.199219 C 12.886719 118.542969 27.363281 79.121094 31.210938 74.746094 C 35.128906 70.300781 49.605469 69.46875 50.210938 69.46875 L 50.285156 70.222656 C 50.132812 70.222656 35.507812 71.054688 31.808594 75.273438 C 28.117188 79.195312 14.84375 115 13.035156 119.824219 L 25.101562 119.21875 L 35.582031 95.324219 L 41.765625 118.316406 L 38.523438 127.660156 L 74.261719 128.566406 L 71.851562 120.875 L 72 120.726562 C 72.148438 120.578125 86.78125 101.882812 79.390625 87.488281 L 80.066406 87.109375 C 83.238281 93.214844 82.484375 100.074219 80.597656 106.027344 L 80.820312 105.953125 L 84.96875 125.398438 C 89.796875 127.4375 93.339844 123.816406 94.019531 123.136719 C 93.867188 120.652344 91.53125 89.824219 89.796875 83.566406 C 88.0625 77.3125 72.375 73.464844 72.226562 73.464844 L 72.375 72.710938 C 73.058594 72.863281 88.664062 76.707031 90.472656 83.414062 C 92.285156 89.898438 94.621094 121.933594 94.695312 123.292969 L 94.773438 123.441406 " fill-opacity="1" fill-rule="nonzero"/><path fill="#100f0d" d="M 61.972656 175.222656 L 61.292969 174.847656 L 55.789062 184.121094 L 56.46875 184.496094 Z M 56.46875 194.972656 L 55.789062 194.597656 L 65.363281 178.164062 L 66.042969 178.539062 L 56.46875 194.972656 " fill-opacity="1" fill-rule="nonzero"/><path fill="#100f0d" d="M 57.824219 261.152344 L 57.070312 261.152344 L 57.144531 240.125 L 57.902344 240.125 L 57.824219 261.152344 " fill-opacity="1" fill-rule="nonzero"/><path fill="#100f0d" d="M 65.441406 96.378906 L 63.933594 112.285156 C 63.855469 113.039062 63.253906 113.640625 62.5 113.640625 L 53.902344 113.640625 C 53.148438 113.640625 52.546875 113.117188 52.472656 112.363281 L 50.886719 96.457031 C 50.8125 96.078125 50.964844 95.625 51.265625 95.324219 C 51.566406 95.023438 51.945312 94.871094 52.320312 94.871094 L 64.082031 94.871094 C 64.460938 94.871094 64.914062 95.023438 65.140625 95.324219 C 65.363281 95.550781 65.515625 96.003906 65.441406 96.378906 " fill-opacity="1" fill-rule="nonzero"/><path fill="#ffffff" d="M 65.816406 94.871094 L 65.816406 95.625 C 65.816406 96.15625 65.363281 96.605469 64.835938 96.605469 L 51.339844 96.605469 C 50.8125 96.605469 50.359375 96.15625 50.359375 95.625 L 50.359375 94.871094 C 50.359375 94.34375 50.8125 93.894531 51.339844 93.894531 L 52.019531 93.894531 L 52.699219 92.082031 L 63.40625 92.082031 L 64.160156 93.894531 L 64.835938 93.894531 C 65.441406 93.96875 65.816406 94.34375 65.816406 94.871094 " fill-opacity="1" fill-rule="nonzero"/><path fill="#100f0d" d="M 65.441406 95.703125 C 65.441406 96.003906 65.214844 96.304688 64.835938 96.304688 L 51.339844 96.304688 C 51.039062 96.304688 50.738281 96.078125 50.738281 95.703125 L 50.738281 94.949219 C 50.738281 94.648438 50.964844 94.34375 51.339844 94.34375 L 64.835938 94.34375 C 65.140625 94.34375 65.441406 94.570312 65.441406 94.949219 Z M 53 92.460938 L 63.179688 92.460938 L 63.632812 93.515625 L 52.621094 93.515625 Z M 64.914062 93.589844 L 64.460938 93.589844 L 63.707031 91.785156 L 52.472656 91.785156 L 51.792969 93.589844 L 51.414062 93.589844 C 50.660156 93.589844 50.058594 94.195312 50.058594 94.949219 L 50.058594 95.703125 C 50.058594 96.457031 50.660156 97.058594 51.414062 97.058594 L 64.914062 97.058594 C 65.667969 97.058594 66.269531 96.457031 66.269531 95.703125 L 66.269531 94.949219 C 66.195312 94.117188 65.589844 93.589844 64.914062 93.589844 " fill-opacity="1" fill-rule="nonzero"/><path fill="#b56951" d="M 62.574219 105.578125 C 63.554688 105.652344 64.6875 105.953125 64.308594 106.78125 C 63.933594 107.761719 61.671875 107.914062 60.164062 107.988281 C 61.21875 108.0625 62.5 108.289062 62.652344 109.121094 C 62.953125 110.550781 58.953125 110.777344 53.074219 111.53125 C 53.074219 111.53125 50.4375 115.300781 43.949219 117.183594 C 36.710938 120.804688 19.21875 129.320312 14.84375 128.339844 C 9.34375 127.132812 11.152344 117.484375 16.578125 113.414062 C 20.953125 110.175781 36.183594 110.175781 41.914062 110.25 C 41.914062 110.25 47.496094 105.800781 49.078125 101.503906 C 50.660156 97.210938 61.671875 99.621094 62.953125 100.828125 C 64.007812 101.808594 62.574219 102.335938 60.3125 102.335938 C 62.046875 102.410156 65.140625 102.785156 65.289062 104.070312 C 65.363281 105.273438 63.78125 105.5 62.574219 105.578125 " fill-opacity="1" fill-rule="nonzero"/><path fill="#100f0d" d="M 49.152344 103.390625 L 49.757812 103.765625 L 50.585938 102.484375 L 49.984375 102.109375 Z M 51.71875 111.910156 L 53.074219 111.910156 L 53.074219 111.15625 L 51.71875 111.15625 Z M 59.484375 108.441406 L 60.238281 108.367188 L 60.164062 107.613281 L 53.375 108.289062 L 53.453125 109.042969 L 58.578125 108.59375 C 58.953125 109.042969 59.707031 109.722656 60.617188 109.722656 C 60.917969 109.722656 61.292969 109.648438 61.59375 109.421875 L 61.21875 108.742188 C 60.460938 109.121094 59.863281 108.742188 59.484375 108.441406 Z M 65.589844 104.070312 C 65.0625 102.710938 63.632812 102.484375 61.445312 102.1875 C 61.144531 102.109375 60.839844 102.109375 60.460938 102.03125 C 57.671875 101.65625 52.320312 102.636719 52.09375 102.710938 L 52.246094 103.464844 C 52.320312 103.464844 57.75 102.410156 60.390625 102.785156 C 60.691406 102.863281 60.992188 102.863281 61.21875 102.941406 L 60.992188 103.011719 C 61.292969 103.691406 62.046875 104.746094 63.328125 104.746094 C 63.554688 104.746094 63.855469 104.671875 64.160156 104.597656 L 63.933594 103.917969 C 62.878906 104.292969 62.199219 103.464844 61.898438 103.011719 C 63.78125 103.238281 64.609375 103.464844 64.988281 104.292969 C 64.988281 104.292969 65.0625 104.445312 64.914062 104.597656 C 64.6875 104.824219 64.007812 105.351562 61.144531 105.125 C 56.242188 104.746094 52.847656 105.5 52.699219 105.5 L 52.847656 106.253906 C 52.847656 106.253906 56.164062 105.578125 60.691406 105.878906 L 60.3125 106.105469 C 60.3125 106.179688 61.144531 107.160156 62.125 107.234375 C 62.199219 107.234375 62.199219 107.234375 62.273438 107.234375 C 62.652344 107.234375 63.027344 107.085938 63.328125 106.78125 L 62.800781 106.179688 C 62.574219 106.40625 62.347656 106.480469 62.125 106.40625 C 61.746094 106.332031 61.292969 106.027344 61.066406 105.800781 C 63.328125 105.953125 64.835938 105.652344 65.363281 104.972656 C 65.816406 104.597656 65.589844 104.070312 65.589844 104.070312 Z M 49.230469 102.335938 C 49.078125 102.5625 45.535156 108.140625 42.144531 110.699219 L 42.066406 110.777344 L 41.914062 110.777344 C 41.6875 110.777344 17.332031 109.648438 14.089844 116.808594 L 13.414062 116.507812 C 16.730469 109.042969 39.652344 109.875 41.839844 110.023438 C 44.933594 107.6875 48.175781 102.636719 48.550781 102.03125 C 48.625 101.730469 48.851562 100.679688 49.832031 100.074219 C 49.90625 100 49.984375 100 50.132812 99.925781 C 51.191406 99.246094 52.921875 98.113281 60.3125 99.546875 L 60.164062 100.226562 C 60.390625 100.601562 60.765625 101.128906 61.292969 101.277344 C 61.671875 101.433594 62.046875 101.355469 62.5 101.054688 L 62.878906 101.730469 C 62.5 101.960938 62.046875 102.109375 61.671875 102.109375 C 61.445312 102.109375 61.292969 102.109375 61.066406 102.03125 C 59.9375 101.65625 59.332031 100.300781 59.332031 100.226562 L 59.484375 100.148438 C 53.074219 99.019531 51.566406 100 50.585938 100.523438 C 50.511719 100.601562 50.359375 100.679688 50.285156 100.75 C 49.457031 101.207031 49.304688 102.1875 49.304688 102.257812 L 49.230469 102.335938 " fill-opacity="1" fill-rule="nonzero"/><path fill="#b56951" d="M 329.195312 246.984375 L 326.632812 252.9375 C 326.632812 252.9375 326.40625 261.984375 331.609375 260.023438 C 336.8125 258.066406 339.300781 247.4375 339.300781 247.4375 Z M 316.453125 267.636719 L 316.453125 275.929688 C 316.453125 275.929688 316.453125 275.929688 312.382812 274.195312 C 308.3125 272.460938 303.785156 277.285156 303.785156 277.285156 L 303.785156 267.636719 C 303.785156 266.128906 306.652344 264.847656 310.121094 264.847656 C 313.664062 264.921875 316.453125 266.128906 316.453125 267.636719 " fill-opacity="1" fill-rule="nonzero"/><path fill="#59c1b4" d="M 355.964844 145.675781 C 359.207031 161.128906 357.019531 181.179688 356.265625 200.625 C 355.511719 221.730469 342.769531 240.351562 341.183594 246.53125 C 337.339844 261.378906 326.03125 247.8125 326.03125 247.8125 C 335.152344 218.339844 324.523438 165.199219 324.523438 165.199219 L 320.601562 212.6875 L 319.542969 269.75 C 310.046875 275.402344 300.242188 271.328125 300.242188 271.328125 L 297.300781 212.988281 L 289.308594 153.742188 L 291.34375 150.726562 C 292.625 151.558594 294.132812 152.007812 295.644531 152.007812 C 301.070312 152.007812 305.445312 146.355469 305.445312 139.269531 C 305.445312 137.835938 305.292969 136.480469 304.917969 135.199219 L 348.046875 135.199219 L 351.894531 149.671875 L 355.132812 148.84375 L 355.964844 145.675781 " fill-opacity="1" fill-rule="nonzero"/><path fill="#100f0d" d="M 337.035156 135.199219 L 304.085938 135.199219 L 304.085938 138.140625 L 337.035156 138.140625 Z M 357.09375 156.90625 C 357.09375 157.359375 357.019531 205.753906 354.605469 211.40625 C 354.53125 211.632812 347.066406 235.300781 341.335938 245.25 L 341.261719 245.324219 C 340.808594 247.359375 339.074219 252.710938 336.8125 252.789062 C 336.585938 252.789062 336.359375 252.789062 336.210938 252.789062 C 333.644531 252.9375 331.757812 253.011719 326.40625 247.511719 L 325.878906 248.039062 C 330.628906 252.9375 332.890625 253.617188 335.078125 253.617188 C 335.457031 253.617188 335.90625 253.617188 336.28125 253.542969 C 336.511719 253.542969 336.660156 253.542969 336.886719 253.542969 C 339.980469 253.390625 341.714844 246.53125 342.015625 245.550781 C 347.746094 235.449219 355.285156 211.78125 355.359375 211.632812 C 357.847656 205.828125 357.925781 158.867188 357.925781 156.832031 L 357.09375 156.832031 Z M 305.367188 154.722656 L 310.121094 176.054688 L 310.875 175.902344 L 306.121094 154.574219 Z M 306.121094 146.28125 L 305.367188 146.203125 L 301.296875 182.6875 L 302.050781 182.761719 Z M 343.671875 174.242188 L 342.316406 151.179688 L 341.5625 151.253906 L 342.917969 174.320312 Z M 351.363281 181.707031 L 346.160156 151.105469 L 345.40625 151.253906 L 350.609375 181.859375 Z M 338.699219 151.40625 L 325.050781 165.347656 L 321.128906 212.6875 L 319.996094 269.898438 L 319.847656 269.972656 C 319.769531 270.050781 315.472656 273.289062 308.609375 273.289062 C 306.121094 273.289062 303.257812 272.835938 300.089844 271.632812 L 300.394531 270.953125 C 310.644531 274.949219 318.113281 270.277344 319.242188 269.523438 L 320.296875 212.6875 L 324.21875 165.046875 L 324.898438 164.371094 L 324.898438 138.0625 L 325.652344 138.0625 L 325.652344 163.542969 L 338.09375 150.878906 L 338.699219 151.40625 " fill-opacity="1" fill-rule="nonzero"/><path fill="#ffffff" d="M 326.859375 138.140625 L 320.296875 138.140625 L 320.296875 135.199219 L 326.859375 135.199219 L 326.859375 138.140625 " fill-opacity="1" fill-rule="nonzero"/><path fill="#100f0d" d="M 320.675781 137.761719 L 326.480469 137.761719 L 326.480469 135.574219 L 320.675781 135.574219 Z M 327.234375 138.515625 L 319.921875 138.515625 L 319.921875 134.820312 L 327.234375 134.820312 L 327.234375 138.515625 " fill-opacity="1" fill-rule="nonzero"/><g clip-path="url(#a3e522e4db)"><path fill="#100f0d" d="M 335.683594 284.597656 C 332.816406 284.597656 329.648438 283.765625 326.632812 281.355469 C 326.332031 283.238281 326.933594 285.726562 331.535156 286.554688 C 336.886719 287.460938 346.617188 285.726562 344.804688 282.03125 C 342.542969 283.238281 339.300781 284.597656 335.683594 284.597656 Z M 321.65625 262.8125 L 321.429688 263.941406 C 321.355469 264.320312 321.429688 264.695312 321.734375 264.921875 C 322.636719 265.902344 324.824219 268.390625 326.40625 271.632812 C 326.632812 267.335938 322.789062 263.71875 321.65625 262.8125 Z M 326.933594 272.914062 C 326.933594 272.914062 326.933594 272.988281 327.011719 272.988281 C 327.011719 273.816406 326.859375 274.648438 326.707031 275.625 C 326.257812 277.511719 326.40625 279.09375 326.859375 280.375 C 326.859375 280.453125 326.785156 280.523438 326.785156 280.601562 L 326.859375 280.523438 C 334.019531 286.332031 341.5625 283.089844 345.179688 280.902344 C 345.632812 278.039062 342.542969 274.269531 340.582031 271.03125 C 337.867188 266.582031 339.902344 254.824219 339.902344 254.824219 C 334.773438 252.035156 329.722656 256.105469 329.722656 256.105469 C 328.59375 253.917969 327.085938 250.90625 327.085938 250.90625 C 327.085938 250.90625 320.902344 257.535156 322.109375 262.058594 C 323.085938 262.964844 328.214844 267.488281 326.933594 272.914062 Z M 311.777344 308.71875 C 310.949219 308.792969 310.195312 308.867188 309.515625 308.867188 C 303.410156 308.867188 299.5625 305.324219 297.300781 302.382812 C 297.074219 303.0625 296.925781 304.34375 297.90625 305.324219 C 299.261719 306.832031 306.046875 312.785156 312.757812 311.734375 C 318.867188 310.753906 325.503906 305.324219 324.070312 301.03125 C 322.410156 303.96875 318.867188 307.738281 311.777344 308.71875 Z M 311.703125 307.964844 C 319.847656 306.832031 322.9375 302.082031 324.144531 299.296875 C 325.050781 294.546875 319.394531 291.90625 317.886719 272.761719 C 317.886719 272.761719 316 273.667969 316.078125 275.777344 C 316.078125 275.777344 310.195312 269.59375 304.765625 276.078125 C 304.765625 276.078125 303.710938 273.667969 302.429688 273.667969 C 302.429688 273.667969 300.84375 288.140625 299.414062 291.078125 C 298.433594 293.039062 296.019531 296.957031 297.226562 300.953125 C 299.261719 304.195312 303.785156 309.019531 311.703125 307.964844 Z M 302.503906 140.175781 L 302.351562 137.160156 L 286.972656 140.402344 L 287.046875 143.417969 Z M 309.292969 161.355469 C 309.515625 162.863281 308.460938 164.21875 306.953125 164.523438 L 289.082031 167.609375 C 288.628906 167.6875 288.179688 167.835938 287.726562 167.988281 C 286.972656 168.289062 285.386719 168.0625 285.539062 162.183594 C 285.691406 155.476562 284.03125 132.410156 283.5 125.625 C 283.5 125.25 283.351562 124.871094 283.203125 124.496094 C 283.804688 124.570312 284.484375 124.644531 285.085938 124.644531 C 287.199219 124.644531 289.15625 124.117188 290.96875 123.066406 C 299.867188 117.789062 300.46875 101.355469 300.46875 100.601562 L 299.714844 100.601562 C 299.714844 100.75 299.113281 117.410156 290.515625 122.382812 C 288.179688 123.742188 285.539062 124.117188 282.449219 123.589844 C 282.21875 123.441406 282.070312 123.292969 281.769531 123.214844 C 278.300781 121.707031 270.382812 116.054688 273.476562 96.984375 C 276.566406 78.214844 277.695312 69.46875 278 66.457031 L 283.65625 76.707031 C 279.132812 86.582031 274.679688 98.492188 274.984375 106.253906 L 275.738281 106.253906 C 275.433594 97.738281 281.089844 83.640625 286.140625 73.164062 C 286.820312 75.578125 288.855469 81.378906 293.90625 84.320312 C 295.941406 85.527344 298.28125 86.128906 300.769531 86.128906 C 301.597656 86.128906 302.503906 86.054688 303.332031 85.902344 C 302.277344 90.953125 301.222656 95.550781 300.921875 96.984375 C 300.84375 97.285156 300.84375 97.585938 300.921875 97.964844 Z M 284.105469 75.953125 C 288.328125 66.984375 292.550781 59.820312 293.304688 59.222656 C 294.886719 58.089844 296.773438 59.371094 297.605469 60.199219 L 297.074219 60.730469 C 297.074219 60.730469 295.265625 58.84375 293.835938 59.820312 C 293.230469 60.273438 290.214844 65.324219 286.820312 72.109375 C 287.046875 73.164062 288.855469 80.398438 294.511719 83.71875 C 297.152344 85.300781 300.242188 85.753906 303.710938 85.148438 C 305.144531 78.59375 306.726562 71.582031 307.101562 70.222656 C 307.480469 69.019531 307.03125 68.039062 306.5 67.359375 C 305.746094 66.457031 305.671875 65.25 306.199219 64.269531 C 308.460938 59.898438 313.363281 49.949219 309.441406 50.554688 C 304.464844 51.378906 278.675781 61.933594 277.546875 62.535156 C 277.320312 62.6875 277.167969 62.914062 277.167969 63.140625 Z M 287.726562 141.003906 L 287.800781 142.511719 L 301.675781 139.570312 L 301.597656 138.0625 Z M 337.792969 132.183594 L 352.796875 127.738281 L 352.421875 124.722656 L 337.339844 129.167969 Z M 352.269531 149.597656 C 346.992188 151.859375 335.753906 157.132812 331.308594 159.246094 C 330.476562 159.621094 329.421875 159.019531 329.496094 158.039062 L 330.703125 130.300781 L 349.179688 81.457031 L 341.335938 76.105469 L 347.371094 74.296875 L 339.148438 51.378906 C 346.839844 53.039062 364.636719 56.734375 365.238281 57.863281 C 365.617188 58.539062 365.617188 59.292969 365.539062 59.976562 C 363.128906 68.417969 354.457031 100.300781 356.265625 118.464844 C 353.476562 126.757812 351.214844 137.535156 352.269531 149.597656 Z M 374.289062 95.929688 C 372.476562 84.472656 367.125 67.058594 365.691406 62.308594 C 362.828125 72.710938 355.886719 99.769531 356.945312 116.730469 C 360.339844 107.535156 364.183594 101.808594 364.335938 101.65625 L 364.9375 102.109375 C 364.785156 102.335938 350.835938 122.835938 353.097656 149.296875 C 355.058594 158.566406 358 156.757812 358 156.757812 C 381.601562 128.039062 374.289062 95.929688 374.289062 95.929688 Z M 334.175781 52.660156 L 330.855469 127.8125 L 348.273438 81.679688 L 339.675781 75.726562 L 346.460938 73.691406 L 338.320312 51.152344 C 337.191406 50.929688 336.359375 50.703125 335.984375 50.625 C 333.265625 49.949219 328.59375 49.644531 328.59375 49.644531 L 329.347656 54.394531 Z M 351.816406 125.703125 L 351.96875 127.210938 L 338.394531 131.207031 L 338.167969 129.773438 L 351.816406 125.703125 " fill-opacity="1" fill-rule="nonzero"/></g><path fill="#100f0d" d="M 81.5 53.566406 C 80.671875 52.359375 79.238281 51.984375 78.484375 51.832031 C 78.183594 51.757812 77.957031 51.757812 77.882812 51.757812 L 77.804688 52.511719 C 77.804688 52.511719 78.03125 52.511719 78.257812 52.585938 C 78.9375 52.738281 80.144531 53.039062 80.820312 54.019531 C 81.425781 54.847656 81.5 55.980469 81.125 57.410156 L 81.878906 57.636719 C 82.328125 55.980469 82.179688 54.621094 81.5 53.566406 " fill-opacity="1" fill-rule="nonzero"/><path fill="#b56951" d="M 78.785156 47.3125 C 78.785156 48.292969 78.710938 49.34375 78.558594 50.476562 C 78.484375 50.929688 78.484375 51.378906 78.410156 51.832031 C 78.335938 52.058594 78.335938 52.359375 78.257812 52.585938 C 77.355469 57.636719 74.867188 63.140625 68.910156 66.078125 L 68.378906 70.375 L 70.191406 71.660156 L 72.304688 73.164062 C 72.304688 73.164062 64.988281 85.601562 60.011719 85.074219 C 55.035156 84.546875 50.058594 69.773438 50.058594 69.773438 L 54.429688 69.019531 L 54.429688 68.339844 L 54.960938 60.574219 C 54.960938 60.574219 52.546875 56.960938 52.167969 55.148438 C 52.167969 55.148438 51.265625 55.148438 50.285156 54.621094 C 49.984375 54.472656 49.605469 54.320312 49.304688 54.09375 C 48.324219 53.339844 47.421875 52.132812 47.042969 50.175781 C 46.667969 48.136719 47.269531 46.40625 48.175781 45.425781 C 49.304688 44.21875 51.039062 44.070312 52.773438 45.726562 C 53 45.953125 53.148438 46.105469 53.375 46.40625 L 54.128906 49.644531 L 54.355469 45.726562 C 55.339844 46.859375 58.277344 49.269531 55.5625 52.058594 L 56.015625 51.90625 C 58.050781 48.820312 55.5625 46.632812 54.429688 45.5 C 54.808594 44.070312 55.488281 42.636719 55.9375 41.507812 C 58.277344 39.019531 61.144531 36.832031 63.101562 34.875 C 63.328125 34.796875 63.632812 34.648438 63.855469 34.570312 C 64.007812 34.496094 64.082031 34.496094 64.234375 34.421875 C 64.386719 34.347656 64.460938 34.347656 64.609375 34.269531 C 64.988281 34.195312 65.363281 34.042969 65.667969 34.042969 C 65.742188 34.042969 65.894531 34.042969 65.96875 33.96875 C 66.34375 35.25 70.042969 46.105469 78.335938 47.160156 C 78.558594 47.160156 78.636719 47.234375 78.785156 47.3125 " fill-opacity="1" fill-rule="nonzero"/><path fill="#ffffff" d="M 61.671875 58.3125 C 66.722656 66.382812 71.621094 59.976562 71.621094 59.976562 C 66.949219 61.40625 61.820312 58.3125 61.820312 58.3125 Z M 77.582031 49.195312 C 76.148438 47.6875 71.925781 50.929688 71.925781 50.929688 C 74.414062 57.714844 79.011719 50.703125 77.582031 49.195312 Z M 59.410156 48.136719 C 59.410156 48.136719 65.363281 45.351562 66.496094 47.839844 C 67.625 50.324219 64.308594 55.226562 59.410156 48.136719 " fill-opacity="1" fill-rule="nonzero"/><path fill="#100f0d" d="M 79.617188 49.871094 L 78.03125 49.644531 C 77.957031 49.117188 77.730469 48.59375 77.128906 48.214844 C 75.695312 47.460938 71.925781 50.851562 71.925781 50.851562 C 71.925781 50.851562 74.488281 48.890625 76.375 48.820312 C 76.675781 48.820312 76.902344 48.820312 77.128906 48.890625 C 76.449219 49.269531 74.867188 50.175781 74.488281 51.832031 C 74.035156 53.945312 75.769531 54.472656 77.355469 51.683594 C 77.355469 51.683594 77.882812 50.851562 77.882812 49.949219 C 77.957031 50.398438 77.882812 50.777344 77.882812 50.777344 C 77.882812 50.777344 77.957031 50.554688 78.03125 50.25 Z M 64.234375 66.910156 C 62.726562 66.53125 57.222656 62.007812 55.183594 60.273438 L 54.734375 60.800781 C 55.035156 61.027344 62.046875 67.136719 64.082031 67.585938 C 64.308594 67.664062 64.609375 67.664062 64.914062 67.664062 C 66.796875 67.664062 68.984375 66.382812 69.132812 66.304688 L 68.757812 65.703125 C 68.683594 65.777344 66.042969 67.359375 64.234375 66.910156 Z M 50.964844 46.933594 C 49.605469 46.253906 48.324219 46.933594 48.25 46.933594 L 48.550781 47.539062 C 48.550781 47.539062 49.605469 47.007812 50.585938 47.539062 C 51.492188 47.988281 52.09375 49.046875 52.394531 50.625 L 53.074219 50.476562 C 52.773438 48.667969 52.09375 47.460938 50.964844 46.933594 Z M 66.269531 56.808594 L 66.421875 57.488281 L 68.605469 56.882812 L 68.457031 56.207031 Z M 71.773438 50.476562 C 71.699219 49.644531 71.621094 48.890625 71.699219 48.515625 C 71.925781 47.085938 74.1875 45.804688 74.261719 45.726562 L 73.960938 45.125 C 73.886719 45.199219 71.324219 46.558594 71.097656 48.363281 C 71.019531 48.820312 71.097656 49.574219 71.171875 50.476562 C 71.394531 52.964844 71.699219 56.808594 69.511719 57.410156 L 69.664062 58.089844 C 72.375 57.410156 72 53.265625 71.773438 50.476562 Z M 65.214844 47.3125 C 63.707031 47.6875 61.746094 51.605469 64.234375 51.832031 C 66.949219 52.058594 66.722656 48.667969 66.722656 48.667969 C 66.722656 48.515625 66.722656 48.292969 66.722656 48.136719 L 67.929688 48.136719 L 66.570312 47.539062 C 66.269531 46.859375 65.589844 46.480469 64.160156 46.480469 C 61.820312 46.480469 59.410156 48.136719 59.410156 48.136719 C 59.410156 48.136719 61.371094 47.539062 63.855469 47.160156 C 64.386719 47.085938 64.835938 47.160156 65.214844 47.3125 Z M 70.570312 60.574219 C 67.402344 61.105469 64.234375 59.898438 62.652344 59.144531 C 64.007812 60.953125 65.515625 61.933594 67.023438 62.007812 C 68.535156 62.082031 69.816406 61.253906 70.570312 60.574219 Z M 71.550781 59.597656 L 72.605469 59.292969 L 71.925781 60.125 C 71.851562 60.273438 69.964844 62.6875 67.175781 62.6875 C 67.097656 62.6875 67.023438 62.6875 66.949219 62.6875 C 64.988281 62.613281 63.179688 61.253906 61.59375 58.769531 C 61.371094 58.917969 61.066406 58.996094 60.765625 59.066406 L 60.765625 58.3125 C 61.445312 58.242188 62.125 57.558594 62.347656 57.261719 L 62.878906 57.714844 C 62.878906 57.714844 62.726562 57.9375 62.425781 58.164062 C 63.632812 58.84375 67.777344 60.800781 71.550781 59.597656 Z M 64.609375 43.015625 C 63.707031 42.9375 59.410156 41.808594 59.410156 41.808594 C 59.410156 41.808594 63.78125 41.730469 65.441406 41.882812 C 67.097656 42.035156 70.796875 44.445312 68.984375 44.898438 C 67.097656 45.351562 65.515625 43.089844 64.609375 43.015625 " fill-opacity="1" fill-rule="nonzero"/><path fill="#100f0d" d="M 48.023438 74.898438 C 48.097656 74.898438 48.097656 74.898438 48.023438 74.898438 Z M 68.910156 42.183594 C 66.871094 40 66.496094 36.683594 66.421875 35.023438 C 66.496094 35.175781 66.570312 35.324219 66.648438 35.550781 C 66.796875 35.929688 67.023438 36.382812 67.25 36.910156 C 67.324219 37.058594 67.402344 37.207031 67.476562 37.4375 C 67.550781 37.585938 67.625 37.8125 67.703125 37.960938 C 67.851562 38.1875 67.929688 38.417969 68.078125 38.644531 C 68.230469 38.871094 68.304688 39.09375 68.457031 39.398438 C 68.605469 39.625 68.683594 39.773438 68.832031 40 C 69.210938 40.601562 69.664062 41.28125 70.113281 41.882812 C 70.265625 42.109375 70.417969 42.261719 70.640625 42.484375 C 70.796875 42.710938 70.945312 42.863281 71.097656 43.015625 C 71.246094 43.238281 71.472656 43.390625 71.621094 43.542969 C 71.773438 43.691406 72 43.84375 72.148438 43.992188 L 72.226562 44.070312 C 70.945312 43.84375 69.816406 43.164062 68.910156 42.183594 Z M 66.042969 33.894531 Z M 55.035156 32.914062 L 59.183594 36.003906 L 58.730469 36.609375 L 54.429688 33.367188 L 54.355469 33.441406 L 56.316406 39.546875 L 55.5625 39.773438 L 54.054688 35.175781 L 53.902344 43.691406 L 53.148438 43.691406 L 53.300781 34.421875 C 53.148438 34.648438 52.921875 34.796875 52.773438 35.023438 L 52.246094 34.570312 C 55.183594 30.953125 59.109375 29.746094 62.199219 29.449219 C 61.59375 24.773438 57.375 24.847656 57.144531 24.847656 L 57.144531 24.09375 C 57.222656 24.09375 62.347656 23.945312 62.953125 29.371094 C 65.214844 29.21875 66.871094 29.597656 66.871094 29.597656 L 66.722656 30.351562 C 66.648438 30.351562 60.164062 28.992188 55.035156 32.914062 Z M 66.496094 25.226562 C 67.777344 26.582031 67.476562 28.992188 67.25 30.125 C 67.175781 30.125 67.097656 30.046875 67.023438 30.046875 C 66.871094 28.617188 66.34375 25.902344 64.160156 24.246094 C 65.140625 24.320312 65.894531 24.621094 66.496094 25.226562 Z M 51.265625 59.75 C 51.265625 61.554688 50.511719 63.289062 49.078125 64.949219 C 49.152344 64.875 49.152344 64.796875 49.230469 64.648438 C 51.945312 59.371094 48.851562 56.054688 48.324219 53.113281 C 49.605469 54.546875 51.265625 56.960938 51.265625 59.75 Z M 78.785156 38.566406 C 77.804688 35.628906 74.867188 32.234375 70.492188 31.632812 C 69.664062 31.105469 68.757812 30.652344 67.851562 30.351562 C 68.078125 29.21875 68.457031 26.355469 66.949219 24.699219 C 66.042969 23.71875 64.609375 23.339844 62.726562 23.492188 C 61.445312 22.964844 59.785156 22.738281 57.671875 22.964844 C 47.949219 24.246094 44.40625 31.105469 43.425781 38.792969 C 42.441406 46.480469 39.425781 45.125 36.9375 50.398438 C 34.449219 55.675781 42.820312 58.691406 39.277344 62.6875 C 35.882812 66.605469 31.132812 67.664062 32.035156 74.21875 C 34.902344 71.730469 40.257812 70.679688 44.179688 70.222656 C 44.78125 69.546875 45.308594 68.792969 45.609375 67.964844 C 47.34375 64.042969 45.460938 59.671875 43.875 55.828125 L 43.496094 54.847656 C 40.859375 48.363281 44.027344 45.578125 44.179688 45.425781 L 44.40625 45.726562 L 44.628906 46.03125 C 44.476562 46.105469 41.6875 48.59375 44.179688 54.546875 L 44.554688 55.527344 C 46.136719 59.292969 48.097656 64.042969 46.289062 68.265625 C 45.988281 68.945312 45.6875 69.546875 45.230469 70.152344 C 46.0625 70.074219 46.816406 69.996094 47.421875 69.996094 C 47.496094 69.09375 47.722656 68.039062 48.175781 66.910156 C 50.585938 64.796875 51.867188 62.386719 51.867188 59.898438 C 51.867188 57.9375 51.113281 56.128906 50.210938 54.699219 C 49.90625 54.546875 49.605469 54.320312 49.304688 54.09375 C 48.324219 53.339844 47.421875 52.132812 47.117188 50.25 C 46.742188 48.214844 47.195312 46.558594 48.097656 45.578125 C 48.25 45.425781 48.324219 45.351562 48.476562 45.277344 C 47.796875 40.753906 50.8125 36.382812 50.964844 36.230469 L 51.566406 36.683594 C 51.566406 36.757812 48.703125 40.753906 49.152344 44.898438 C 49.605469 44.671875 50.210938 44.671875 50.738281 44.746094 C 50.8125 44.746094 50.964844 44.824219 51.039062 44.824219 C 51.191406 44.898438 51.339844 44.898438 51.414062 44.972656 C 51.492188 44.972656 51.566406 45.050781 51.640625 45.125 C 51.71875 45.199219 51.867188 45.277344 51.945312 45.351562 C 52.167969 45.5 52.394531 45.726562 52.621094 45.878906 C 52.847656 46.105469 53 46.253906 53.226562 46.558594 L 53.980469 49.800781 L 54.808594 46.558594 C 55.789062 47.6875 57.070312 49.800781 55.488281 52.210938 L 56.09375 52.585938 C 58.128906 49.496094 56.09375 46.785156 55.035156 45.652344 C 55.410156 44.21875 55.789062 42.9375 56.316406 41.882812 C 58.65625 39.398438 61.066406 36.984375 63.027344 35.023438 C 63.253906 34.949219 63.554688 34.796875 63.78125 34.722656 C 63.933594 34.648438 64.007812 34.648438 64.160156 34.570312 C 64.308594 34.496094 64.386719 34.496094 64.535156 34.421875 C 64.914062 34.347656 65.214844 34.269531 65.515625 34.195312 C 65.515625 34.949219 65.363281 39.773438 68.15625 42.863281 C 69.4375 44.296875 71.171875 45.125 73.28125 45.351562 C 73.359375 45.425781 73.433594 45.425781 73.507812 45.5 C 73.65625 45.578125 73.734375 45.652344 73.886719 45.726562 C 73.886719 45.726562 73.960938 45.726562 73.960938 45.804688 C 74.035156 45.878906 74.1875 45.953125 74.261719 45.953125 C 74.339844 45.953125 74.414062 46.03125 74.488281 46.03125 C 74.566406 46.105469 74.714844 46.179688 74.789062 46.179688 C 74.941406 46.253906 75.09375 46.332031 75.242188 46.40625 L 75.320312 46.40625 C 75.46875 46.480469 75.695312 46.558594 75.847656 46.632812 L 75.921875 46.632812 C 76.074219 46.707031 76.222656 46.785156 76.375 46.785156 C 76.449219 46.785156 76.601562 46.859375 76.675781 46.859375 C 77.128906 47.007812 77.582031 47.085938 78.109375 47.160156 C 78.257812 47.234375 78.410156 47.3125 78.484375 47.382812 C 80.292969 48.214844 82.253906 48.59375 84.292969 48.214844 C 84.667969 48.136719 80.144531 42.5625 78.785156 38.566406 " fill-opacity="1" fill-rule="nonzero"/><path fill="#59c1b4" d="M 52.019531 53.640625 C 52.019531 54.09375 51.71875 54.394531 51.265625 54.394531 C 50.8125 54.394531 50.511719 54.09375 50.511719 53.640625 C 50.511719 53.191406 50.8125 52.886719 51.265625 52.886719 C 51.71875 52.886719 52.019531 53.191406 52.019531 53.640625 " fill-opacity="1" fill-rule="nonzero"/><path fill="#f7ccc6" d="M 151.25 50.175781 C 147.476562 48.820312 145.140625 44.671875 144.460938 43.238281 C 144.460938 43.238281 144.386719 43.238281 144.3125 43.238281 C 144.3125 44.445312 144.613281 46.480469 146.121094 47.988281 C 147.328125 49.195312 149.0625 49.949219 151.25 50.175781 Z M 155.019531 67.890625 C 154.039062 70.152344 152.679688 72.035156 151.097656 73.542969 L 152.378906 79.644531 C 150.644531 86.203125 143.332031 88.316406 143.332031 88.316406 C 138.054688 88.464844 133.226562 80.171875 133.226562 80.171875 L 134.660156 72.710938 C 133.453125 71.355469 132.398438 69.773438 131.644531 67.890625 C 127.496094 68.488281 124.332031 59.597656 126.289062 57.558594 C 126.820312 56.960938 127.421875 56.808594 128.023438 56.960938 C 128.777344 57.863281 129.304688 58.46875 129.304688 58.46875 L 131.71875 60.351562 L 131.792969 54.320312 C 131.191406 50.175781 136.019531 44.523438 136.019531 44.523438 C 136.019531 44.523438 137.070312 44.445312 138.507812 44.21875 C 140.089844 43.992188 142.125 43.769531 143.632812 43.464844 C 143.707031 44.824219 144.085938 46.933594 145.667969 48.515625 C 147.25 50.175781 149.664062 51.003906 152.90625 51.003906 C 153.660156 51.003906 154.414062 50.929688 155.167969 50.851562 L 156.300781 57.035156 L 156.449219 57.863281 L 157.507812 57.035156 C 157.582031 57.035156 157.734375 56.960938 157.808594 56.960938 C 158.410156 56.808594 159.089844 56.960938 159.617188 57.558594 C 161.425781 59.445312 158.789062 67.359375 155.019531 67.890625 " fill-opacity="1" fill-rule="nonzero"/><path fill="#ffffff" d="M 141.371094 58.769531 C 141.371094 58.769531 140.464844 55.675781 137.902344 55.828125 C 135.414062 56.054688 133.828125 57.714844 133.828125 57.714844 C 133.828125 57.714844 139.410156 65.703125 141.371094 58.769531 Z M 147.703125 59.222656 C 147.703125 59.222656 147.777344 57.488281 150.871094 56.128906 C 153.964844 54.773438 154.039062 57.9375 154.039062 57.9375 C 152.078125 65.476562 147.703125 59.222656 147.703125 59.222656 " fill-opacity="1" fill-rule="nonzero"/><path fill="#100f0d" d="M 156.828125 61.78125 C 157.203125 60.199219 159.316406 59.066406 159.316406 59.066406 L 158.9375 58.390625 C 158.863281 58.390625 157.882812 58.996094 157.054688 59.898438 C 156.601562 58.390625 156.148438 57.183594 156.527344 56.960938 L 156.449219 57.183594 C 156.449219 57.335938 156.300781 68.792969 150.871094 73.238281 C 150.792969 73.316406 146.875 77.007812 144.160156 77.007812 C 141.445312 77.007812 134.960938 72.410156 134.886719 72.335938 L 134.433594 72.9375 C 134.738281 73.164062 141.144531 77.761719 144.160156 77.761719 C 146.574219 77.761719 149.742188 75.273438 150.871094 74.21875 L 151.925781 79.574219 C 151.625 80.398438 149.285156 86.734375 142.804688 87.863281 L 142.953125 88.617188 C 150.265625 87.261719 152.679688 79.796875 152.679688 79.722656 L 152.679688 79.644531 L 151.476562 73.691406 C 154.867188 70.828125 156.226562 65.628906 156.828125 61.78125 Z M 127.875 59.371094 C 127.269531 59.222656 126.894531 59.445312 126.820312 59.445312 L 127.195312 60.046875 C 127.195312 60.046875 127.347656 59.976562 127.648438 60.046875 C 128.023438 60.125 128.855469 60.652344 129.910156 62.613281 L 130.589844 62.234375 C 129.683594 60.652344 128.777344 59.671875 127.875 59.371094 Z M 138.65625 68.71875 L 138.28125 69.398438 C 140.464844 70.527344 142.425781 70.90625 144.160156 70.90625 C 147.179688 70.90625 149.214844 69.699219 149.96875 69.171875 C 150.195312 69.398438 150.265625 69.546875 150.34375 69.621094 L 151.097656 69.621094 C 151.097656 69.46875 151.097656 69.09375 149.441406 67.585938 L 148.910156 68.113281 C 149.136719 68.265625 149.285156 68.488281 149.511719 68.644531 C 148.308594 69.46875 144.3125 71.660156 138.65625 68.71875 Z M 143.859375 66.53125 L 144.234375 65.929688 C 143.859375 65.703125 142.652344 64.949219 141.972656 65.175781 L 142.199219 65.851562 C 142.425781 65.777344 143.179688 66.078125 143.859375 66.53125 Z M 147.628906 65.777344 L 147.855469 65.097656 C 147.328125 64.875 146.195312 65.550781 145.515625 65.929688 L 145.894531 66.53125 C 146.648438 66.078125 147.402344 65.777344 147.628906 65.777344 Z M 150.871094 56.507812 C 151.703125 56.207031 152.304688 56.28125 152.757812 56.582031 C 151.625 56.882812 149.285156 58.089844 150.871094 61.707031 C 150.871094 61.707031 153.285156 62.308594 154.039062 58.089844 L 153.964844 57.9375 C 154.039062 58.015625 154.039062 58.089844 154.039062 58.089844 C 153.964844 55.980469 152.757812 55.300781 150.570312 55.980469 C 148.382812 56.65625 147.703125 59.371094 147.703125 59.371094 C 147.703125 59.371094 148.609375 57.335938 150.871094 56.507812 Z M 133.828125 57.714844 C 133.828125 57.714844 134.660156 55.453125 137.902344 55.453125 C 141.144531 55.453125 141.296875 58.769531 141.296875 58.769531 C 140.316406 62.835938 137.753906 61.40625 137.753906 61.40625 C 136.84375 58.46875 139.035156 57.183594 139.789062 56.808594 C 137.148438 54.699219 133.828125 57.714844 133.828125 57.714844 " fill-opacity="1" fill-rule="nonzero"/><path fill="#b56951" d="M 154.039062 51.90625 C 154.039062 51.90625 149.285156 50.554688 147.703125 52.964844 C 146.121094 55.375 151.703125 53.492188 153.132812 53.640625 C 154.640625 53.792969 154.039062 51.90625 154.039062 51.90625 Z M 135.1875 51.683594 C 135.1875 51.683594 140.917969 50.851562 141.371094 53.113281 C 141.746094 55.375 139.261719 53.113281 135.1875 53.113281 C 131.117188 53.039062 135.1875 51.683594 135.1875 51.683594 " fill-opacity="1" fill-rule="nonzero"/><path fill="#b56951" d="M 146.121094 47.988281 C 144.613281 46.480469 144.3125 44.445312 144.3125 43.238281 C 144.3125 43.238281 144.386719 43.238281 144.460938 43.238281 C 145.140625 44.671875 147.476562 48.820312 151.25 50.175781 C 149.0625 49.949219 147.328125 49.195312 146.121094 47.988281 Z M 146.949219 40.828125 L 149.664062 43.992188 L 149.136719 44.445312 L 146.421875 41.28125 Z M 142.726562 41.128906 C 142.726562 41.128906 141.597656 40.300781 140.464844 40.527344 C 139.789062 40.675781 139.261719 41.128906 138.808594 41.882812 C 138.808594 41.957031 138.808594 42.035156 138.808594 42.035156 L 138.054688 41.957031 C 138.054688 41.808594 138.507812 38.941406 140.089844 38.1875 C 140.84375 37.890625 141.671875 38.039062 142.578125 38.714844 L 142.125 39.320312 C 141.445312 38.792969 140.84375 38.644531 140.316406 38.871094 C 139.789062 39.09375 139.410156 39.625 139.183594 40.222656 C 139.484375 40 139.863281 39.847656 140.164062 39.773438 C 141.671875 39.46875 142.953125 40.449219 143.03125 40.449219 Z M 137.148438 36.53125 C 137.449219 36.078125 138.054688 35.703125 138.808594 35.550781 C 137.527344 36.683594 137 38.265625 136.84375 39.09375 C 136.695312 38.339844 136.546875 37.285156 137.148438 36.53125 Z M 161.199219 49.800781 C 160.144531 50.023438 159.089844 50.097656 158.261719 50.097656 C 157.582031 50.097656 157.054688 50.023438 156.980469 50.023438 L 157.054688 49.269531 C 157.054688 49.269531 159.464844 49.496094 161.199219 48.96875 C 161.199219 47.761719 160.972656 46.558594 160.597656 45.425781 C 158.410156 47.539062 156.300781 48.667969 154.414062 48.667969 C 154.265625 48.667969 154.113281 48.667969 153.964844 48.667969 C 151.023438 48.363281 149.742188 45.5 149.664062 45.425781 L 150.34375 45.125 C 150.34375 45.125 151.546875 47.6875 154.039062 47.988281 C 155.847656 48.136719 158.035156 47.085938 160.296875 44.746094 C 159.996094 43.992188 159.691406 43.316406 159.316406 42.710938 C 158.863281 43.769531 158.335938 44.597656 157.582031 45.199219 C 156.375 46.179688 155.09375 46.40625 154.113281 46.40625 C 153.433594 46.40625 152.984375 46.253906 152.90625 46.253906 L 153.058594 45.578125 C 153.058594 45.578125 155.320312 46.105469 157.054688 44.671875 C 157.808594 43.992188 158.410156 43.089844 158.789062 41.882812 C 157.65625 40.148438 156.300781 38.941406 155.167969 38.566406 C 156 38.117188 156.753906 37.363281 157.28125 36.15625 L 156.601562 35.929688 C 155.773438 38.117188 153.8125 38.492188 152.679688 38.492188 C 150.644531 38.117188 149.214844 36.15625 143.933594 34.796875 C 142.5 34.421875 141.371094 34.421875 140.390625 34.722656 C 138.429688 34.722656 137.070312 35.175781 136.394531 36.15625 C 135.714844 37.136719 135.789062 38.265625 135.941406 39.167969 C 134.886719 38.644531 132.773438 38.339844 130.136719 42.183594 C 129.910156 42.5625 129.683594 42.863281 129.457031 43.164062 C 128.476562 43.992188 127.121094 44.824219 125.914062 44.746094 L 125.839844 45.5 C 126.667969 45.578125 127.421875 45.351562 128.175781 44.972656 C 125.535156 48.515625 124.027344 50.554688 125.234375 52.964844 C 126.066406 54.546875 127.121094 56.054688 127.949219 57.109375 C 128.703125 58.015625 129.230469 58.617188 129.230469 58.617188 L 131.644531 60.503906 L 131.71875 54.472656 C 131.117188 50.324219 135.941406 44.671875 135.941406 44.671875 C 135.941406 44.671875 137 44.597656 138.429688 44.371094 C 140.015625 44.144531 142.050781 43.917969 143.558594 43.617188 C 143.632812 44.972656 144.007812 47.085938 145.59375 48.667969 C 147.179688 50.324219 149.589844 51.152344 152.832031 51.152344 C 153.585938 51.152344 154.339844 51.078125 155.09375 51.003906 L 156.226562 57.183594 L 156.375 58.015625 L 157.355469 57.183594 L 157.507812 57.109375 L 157.734375 57.035156 C 158.9375 56.28125 161.128906 51.832031 161.199219 49.800781 " fill-opacity="1" fill-rule="nonzero"/><path fill="#59c1b4" d="M 156.148438 60.503906 C 156.148438 61.78125 155.09375 62.835938 153.8125 62.835938 L 148.984375 62.835938 C 147.703125 62.835938 146.648438 61.78125 146.648438 60.503906 L 146.648438 57.488281 C 146.648438 56.207031 147.703125 55.148438 148.984375 55.148438 L 153.8125 55.148438 C 155.09375 55.148438 156.148438 56.207031 156.148438 57.488281 Z M 141.972656 60.503906 C 141.972656 61.78125 140.917969 62.835938 139.636719 62.835938 L 134.808594 62.835938 C 133.527344 62.835938 132.472656 61.78125 132.472656 60.503906 L 132.472656 57.488281 C 132.472656 56.207031 133.527344 55.148438 134.808594 55.148438 L 139.636719 55.148438 C 140.917969 55.148438 141.972656 56.207031 141.972656 57.488281 Z M 153.8125 54.246094 L 148.984375 54.246094 C 147.179688 54.246094 145.742188 55.675781 145.742188 57.488281 L 145.742188 57.9375 C 145.367188 57.714844 144.839844 57.558594 144.3125 57.558594 C 143.785156 57.558594 143.253906 57.714844 142.878906 58.015625 L 142.878906 57.558594 C 142.878906 55.753906 141.445312 54.320312 139.636719 54.320312 L 134.808594 54.320312 C 133 54.320312 131.566406 55.753906 131.566406 57.558594 L 131.566406 60.574219 C 131.566406 62.386719 133 63.816406 134.808594 63.816406 L 139.636719 63.816406 C 141.445312 63.816406 142.878906 62.386719 142.878906 60.574219 L 142.878906 59.066406 C 143.105469 58.769531 143.632812 58.3125 144.3125 58.3125 C 144.988281 58.3125 145.515625 58.769531 145.742188 59.066406 L 145.742188 60.574219 C 145.742188 62.386719 147.179688 63.816406 148.984375 63.816406 L 153.8125 63.816406 C 155.621094 63.816406 157.054688 62.386719 157.054688 60.574219 L 157.054688 57.558594 C 157.054688 55.675781 155.621094 54.246094 153.8125 54.246094 " fill-opacity="1" fill-rule="nonzero"/><path fill="#b56951" d="M 245.578125 58.539062 C 250.324219 68.191406 249.195312 75.804688 247.6875 80.25 C 247.6875 79.949219 247.6875 79.722656 247.6875 79.417969 C 247.839844 70.375 247.007812 63.589844 245.578125 58.539062 Z M 229.4375 52.285156 C 229.4375 52.210938 227.703125 47.6875 225.519531 46.859375 C 224.992188 46.632812 224.464844 46.707031 224.011719 47.007812 L 222.804688 47.6875 L 223.484375 46.480469 C 223.484375 46.480469 225.066406 43.691406 228.082031 44.523438 L 227.859375 45.277344 C 226.5 44.898438 225.519531 45.5 224.839844 46.03125 C 225.140625 46.03125 225.441406 46.105469 225.746094 46.179688 C 228.308594 47.085938 230.042969 51.832031 230.121094 52.058594 Z M 216.546875 60.351562 L 215.792969 60.273438 C 216.925781 50.625 221.449219 47.914062 221.597656 47.839844 L 221.976562 48.515625 C 221.976562 48.441406 217.679688 51.078125 216.546875 60.351562 Z M 210.589844 101.277344 L 209.984375 100.828125 C 215.566406 93.816406 214.507812 77.761719 214.507812 77.613281 L 215.261719 77.535156 C 215.339844 78.214844 216.320312 94.042969 210.589844 101.277344 Z M 225.441406 43.464844 C 226.121094 43.015625 227.105469 43.015625 228.308594 43.316406 C 226.121094 43.464844 224.992188 44.21875 224.386719 44.898438 C 224.539062 44.445312 224.839844 43.84375 225.441406 43.464844 Z M 244.292969 54.621094 C 240.449219 45.277344 234.265625 43.691406 230.570312 43.390625 C 228.234375 42.261719 226.351562 42.109375 225.066406 42.863281 C 223.558594 43.769531 223.40625 45.578125 223.40625 45.953125 C 215.792969 44.597656 211.71875 56.65625 209.230469 71.582031 C 206.746094 79.347656 202.976562 88.316406 199.429688 87.9375 L 199.355469 88.691406 C 199.429688 88.691406 199.503906 88.691406 199.582031 88.691406 C 202.976562 88.691406 206.214844 82.132812 208.554688 75.726562 C 207.648438 82.058594 206.96875 88.691406 206.367188 94.949219 C 205.839844 100.453125 207.949219 104.445312 211.417969 106.78125 C 219.941406 99.847656 219.261719 81.378906 219.261719 81.152344 L 220.015625 81.152344 C 220.089844 82.058594 220.695312 100 212.097656 107.234375 C 221.144531 112.511719 238.335938 107.761719 244.972656 92.535156 C 245.046875 84.167969 241.878906 78.820312 241.878906 78.742188 L 242.5625 78.367188 C 242.632812 78.441406 245.351562 83.1875 245.726562 90.726562 C 246.632812 88.242188 247.234375 85.527344 247.535156 82.589844 C 249.570312 78.289062 252.585938 67.964844 244.292969 54.621094 " fill-opacity="1" fill-rule="nonzero"/><path fill="#f7ccc6" d="M 246.179688 65.402344 C 245.199219 64.796875 244.144531 65.25 243.316406 65.851562 L 241.582031 67.511719 L 240.75 57.714844 C 238.863281 55.601562 227.105469 55.828125 227.105469 55.828125 C 227.105469 54.699219 225.066406 50.175781 224.464844 48.890625 C 224.3125 48.96875 224.160156 49.046875 224.011719 49.117188 L 222.125 56.960938 L 216.472656 62.082031 L 216.472656 69.019531 L 215.113281 67.8125 C 214.4375 67.285156 213.679688 67.058594 212.925781 67.4375 C 210.589844 68.566406 212.625 76.933594 218.128906 76.027344 C 218.128906 76.027344 218.128906 76.027344 218.207031 76.027344 C 219.714844 78.367188 221.671875 80.25 223.859375 81.457031 L 223.710938 84.695312 L 223.558594 87.261719 L 223.484375 88.84375 C 223.484375 88.84375 227.632812 92.6875 231.324219 91.933594 C 231.550781 91.855469 231.777344 91.855469 232.003906 91.785156 C 232.15625 91.707031 232.304688 91.707031 232.457031 91.632812 C 232.605469 91.554688 232.757812 91.480469 232.984375 91.40625 C 233.136719 91.328125 233.210938 91.257812 233.359375 91.257812 C 233.4375 91.179688 233.585938 91.101562 233.664062 91.101562 C 233.890625 91.03125 234.039062 90.878906 234.265625 90.726562 C 234.339844 90.652344 234.417969 90.574219 234.566406 90.503906 C 234.644531 90.425781 234.71875 90.347656 234.792969 90.277344 C 236.300781 89.144531 237.28125 87.710938 237.582031 87.261719 C 237.582031 87.183594 237.660156 87.183594 237.660156 87.183594 L 237.660156 87.035156 L 236.601562 80.023438 C 238.335938 78.59375 239.84375 76.707031 240.976562 74.519531 C 245.953125 75.273438 248.214844 66.605469 246.179688 65.402344 " fill-opacity="1" fill-rule="nonzero"/><path fill="#ffffff" d="M 236.527344 70.152344 C 236.527344 70.152344 228.613281 73.917969 222.878906 72.5625 C 222.878906 72.5625 226.726562 77.007812 230.421875 75.804688 C 234.113281 74.597656 236.527344 70.152344 236.527344 70.152344 Z M 225.894531 62.386719 C 225.894531 62.386719 225.066406 59.976562 223.332031 60.273438 C 221.597656 60.574219 218.28125 64.34375 218.28125 64.34375 C 218.28125 64.34375 225.441406 69.09375 225.894531 62.386719 Z M 232.304688 62.160156 C 232.304688 62.160156 232.53125 59.292969 234.867188 59.292969 C 237.207031 59.292969 239.617188 62.160156 239.617188 62.160156 C 239.617188 62.160156 234.792969 68.113281 232.304688 62.160156 " fill-opacity="1" fill-rule="nonzero"/><path fill="#100f0d" d="M 213.753906 69.320312 C 213 69.242188 212.550781 69.699219 212.472656 69.699219 L 213 70.222656 C 213 70.222656 213.226562 69.996094 213.679688 70.074219 C 214.207031 70.152344 214.960938 70.449219 216.09375 71.957031 L 216.699219 71.503906 C 215.71875 70.152344 214.664062 69.398438 213.753906 69.320312 Z M 241.878906 69.847656 L 242.5625 70.074219 C 243.464844 67.511719 245.726562 67.8125 245.800781 67.8125 L 245.953125 67.058594 C 245.878906 67.136719 242.9375 66.683594 241.878906 69.847656 Z M 228.988281 82.589844 L 228.761719 83.339844 C 229.140625 83.414062 229.589844 83.492188 229.964844 83.492188 C 231.476562 83.492188 232.910156 82.886719 232.984375 82.8125 L 232.683594 82.132812 C 232.683594 82.132812 230.648438 83.039062 228.988281 82.589844 Z M 231.703125 68.039062 L 230.570312 66.53125 L 229.964844 66.984375 L 231.097656 68.488281 Z M 228.613281 61.179688 C 228.613281 59.292969 226.273438 57.9375 226.195312 57.863281 L 225.820312 58.539062 C 226.351562 58.84375 227.859375 59.976562 227.859375 61.179688 C 227.859375 62.835938 226.800781 66.457031 226.800781 66.53125 L 226.726562 66.683594 L 228.15625 69.46875 L 228.835938 69.171875 L 227.554688 66.605469 C 227.703125 65.851562 228.613281 62.6875 228.613281 61.179688 Z M 235.546875 70.976562 C 234.644531 72.335938 232.757812 74.671875 230.269531 75.425781 C 227.859375 76.179688 225.21875 74.296875 223.933594 73.089844 C 228.308594 73.691406 233.359375 71.882812 235.546875 70.976562 Z M 230.496094 76.179688 C 234.265625 74.972656 236.679688 70.527344 236.828125 70.300781 L 237.355469 69.320312 L 236.300781 69.847656 C 236.226562 69.847656 228.457031 73.542969 222.878906 72.257812 L 221.75 71.957031 L 222.503906 72.863281 C 222.652344 73.011719 225.667969 76.40625 228.988281 76.40625 C 229.589844 76.40625 230.042969 76.332031 230.496094 76.179688 Z M 225.972656 62.082031 C 225.972656 62.082031 225.59375 60.953125 224.765625 60.273438 C 224.386719 59.976562 223.933594 59.75 223.332031 59.820312 C 221.449219 59.976562 218.507812 63.667969 218.507812 63.667969 L 217.226562 63.667969 L 218.28125 64.269531 C 218.28125 64.269531 219.636719 62.835938 220.996094 61.707031 C 221.144531 62.535156 221.671875 64.648438 223.179688 64.269531 C 224.613281 63.894531 224.765625 61.78125 224.839844 60.730469 C 225.519531 61.328125 225.972656 62.082031 225.972656 62.082031 Z M 240.371094 61.554688 L 239.617188 62.386719 C 239.617188 62.386719 238.636719 61.40625 237.507812 60.574219 C 237.433594 61.328125 237.128906 63.214844 235.398438 63.441406 C 233.738281 63.742188 233.664062 61.253906 233.738281 60.046875 C 232.605469 60.800781 232.078125 62.007812 232.078125 62.007812 C 232.078125 62.007812 232.304688 59.222656 234.492188 58.917969 C 236.679688 58.617188 239.617188 61.632812 239.617188 61.632812 L 240.371094 61.554688 " fill-opacity="1" fill-rule="nonzero"/><path fill="#b56951" d="M 223.632812 55.527344 C 223.859375 55.527344 224.011719 55.675781 224.160156 55.828125 C 224.539062 56.207031 225.066406 56.960938 224.613281 57.558594 C 224.238281 58.089844 222.125 58.84375 220.769531 59.292969 C 220.089844 59.519531 219.488281 58.917969 219.636719 58.242188 C 219.941406 56.960938 220.917969 55.300781 223.632812 55.527344 " fill-opacity="1" fill-rule="nonzero"/><path fill="#100f0d" d="M 216.769531 68.867188 L 216.015625 68.867188 L 216.015625 61.933594 L 221.449219 57.183594 L 223.558594 48.742188 L 224.3125 48.890625 L 222.125 57.558594 L 216.769531 62.234375 L 216.769531 68.867188 " fill-opacity="1" fill-rule="nonzero"/><path fill="#b56951" d="M 231.703125 55.226562 C 231.703125 55.226562 232.304688 57.714844 235.546875 57.558594 C 238.789062 57.410156 236.828125 52.285156 231.703125 55.226562 Z M 224.3125 48.066406 C 224.386719 48.292969 226.121094 52.738281 225.820312 56.28125 L 225.066406 56.207031 C 225.367188 52.886719 223.632812 48.363281 223.632812 48.363281 L 224.3125 48.066406 " fill-opacity="1" fill-rule="nonzero"/><path fill="#b56951" d="M 337.945312 33.289062 C 336.511719 36.757812 333.796875 39.019531 331.835938 38.1875 C 331.609375 38.117188 331.382812 37.960938 331.230469 37.8125 C 330.554688 39.019531 329.722656 40.148438 328.820312 41.203125 L 329.648438 51.230469 L 334.398438 51.90625 C 334.398438 51.90625 328.519531 65.703125 319.242188 65.929688 C 309.96875 66.078125 304.992188 59.371094 304.691406 55.753906 L 311.023438 52.585938 L 311.628906 45.953125 C 309.667969 44.824219 308.007812 43.164062 306.652344 41.054688 C 304.839844 40.976562 302.730469 39.019531 301.449219 36.15625 C 299.941406 32.6875 300.167969 29.21875 302.050781 28.390625 C 302.277344 28.316406 302.578125 28.238281 302.804688 28.238281 C 302.804688 28.011719 302.804688 27.714844 302.804688 27.488281 C 302.804688 16.707031 310.496094 7.964844 319.167969 7.964844 C 327.839844 7.964844 334.851562 14.75 334.851562 25.527344 C 334.851562 25.679688 334.851562 25.753906 334.851562 25.902344 C 335.683594 25.527344 336.4375 25.375 337.113281 25.679688 C 339 26.355469 339.375 29.824219 337.945312 33.289062 " fill-opacity="1" fill-rule="nonzero"/><path fill="#ffffff" d="M 304.539062 25.828125 C 304.539062 25.828125 307.253906 20.324219 310.046875 21.53125 C 312.835938 22.738281 312.53125 24.773438 312.53125 24.773438 C 312.53125 24.773438 308.914062 28.695312 304.539062 25.828125 " fill-opacity="1" fill-rule="nonzero"/><path fill="#100f0d" d="M 312.082031 44.445312 L 312.082031 45.199219 C 307.328125 45.125 304.839844 39.167969 303.558594 34.347656 C 302.578125 32.234375 301.976562 31.78125 301.75 31.707031 C 301.675781 31.707031 301.597656 31.707031 301.597656 31.707031 L 301.070312 31.179688 C 301.222656 31.027344 301.449219 30.878906 301.824219 30.953125 C 302.203125 31.027344 302.578125 31.332031 302.957031 31.78125 C 302.578125 29.824219 302.429688 28.316406 302.351562 28.164062 L 303.105469 28.089844 C 303.183594 28.238281 304.917969 44.371094 312.082031 44.445312 Z M 330.855469 36.683594 L 331.535156 37.664062 L 330.929688 38.117188 L 330.25 37.136719 Z M 337.945312 27.488281 L 337.640625 28.164062 C 337.640625 28.164062 336.738281 27.785156 335.683594 28.316406 C 334.625 28.84375 333.796875 30.046875 333.191406 31.933594 L 332.4375 31.707031 C 333.042969 29.597656 334.019531 28.238281 335.304688 27.636719 C 336.738281 27.03125 337.945312 27.488281 337.945312 27.488281 Z M 314.265625 21.304688 L 314.792969 24.394531 L 312.382812 28.539062 L 311.703125 28.164062 L 313.964844 24.320312 L 313.511719 21.457031 Z M 326.257812 21.605469 L 326.105469 22.359375 C 323.242188 21.683594 319.921875 24.019531 319.847656 24.019531 L 319.394531 23.417969 C 319.542969 23.265625 323.015625 20.777344 326.257812 21.605469 Z M 324.824219 14.371094 C 325.652344 14.445312 326.40625 16.332031 326.332031 16.855469 C 326.257812 17.386719 324.75 16.257812 322.261719 16.632812 C 319.695312 17.082031 318.5625 18.742188 318.339844 18.441406 C 318.035156 18.214844 318.5625 15.199219 318.5625 15.199219 C 321.65625 13.617188 323.996094 14.296875 324.824219 14.371094 Z M 305.898438 17.988281 C 304.839844 19.949219 305.523438 19.648438 305.523438 19.648438 C 308.082031 17.765625 312.53125 19.042969 312.910156 18.667969 C 313.285156 18.292969 312.382812 16.332031 312.382812 16.332031 C 310.269531 15.351562 306.953125 16.03125 305.898438 17.988281 Z M 312.609375 23.792969 C 312.609375 23.792969 311.023438 21.832031 309.441406 21.683594 C 308.988281 21.605469 308.3125 21.984375 307.707031 22.511719 C 308.3125 22.738281 309.59375 23.640625 309.214844 26.734375 C 309.214844 26.734375 307.179688 27.636719 304.613281 25.828125 L 305.59375 24.621094 C 304.992188 25.300781 304.613281 25.828125 304.613281 25.828125 C 304.613281 25.828125 306.652344 21.683594 308.839844 21.003906 C 311.023438 20.324219 312.609375 23.792969 312.609375 23.792969 " fill-opacity="1" fill-rule="nonzero"/><path fill="#100f0d" d="M 331.308594 8.867188 C 332.210938 9.097656 333.191406 9.472656 334.019531 10.375 C 335.753906 12.109375 336.660156 14.898438 336.660156 18.816406 C 336.058594 15.125 334.625 10.902344 331.308594 8.867188 Z M 328.667969 3.667969 C 329.496094 3.96875 330.027344 4.347656 330.175781 4.796875 C 330.402344 5.476562 329.800781 6.230469 329.195312 6.835938 C 329.273438 5.855469 329.195312 4.648438 328.667969 3.667969 Z M 328.441406 6.382812 C 328.214844 5.476562 327.839844 4.347656 327.085938 3.289062 C 327.234375 3.289062 327.386719 3.367188 327.460938 3.367188 C 327.613281 3.515625 327.765625 3.742188 327.914062 3.96875 C 328.441406 4.648438 328.519531 5.550781 328.441406 6.382812 Z M 326.859375 7.589844 C 326.785156 7.589844 326.785156 7.589844 326.859375 7.589844 L 326.785156 7.589844 C 326.785156 7.589844 326.785156 7.589844 326.785156 7.511719 C 323.390625 2.914062 318.113281 5.925781 317.886719 6.082031 L 317.507812 5.402344 C 317.585938 5.402344 322.410156 2.613281 326.179688 5.777344 C 325.578125 4.648438 324.371094 3.441406 322.035156 3.742188 L 321.957031 2.988281 C 326.859375 2.386719 327.539062 7.433594 327.539062 7.433594 Z M 297.679688 15.652344 C 297.605469 14.296875 298.207031 13.089844 298.960938 12.035156 C 298.28125 14.597656 298.886719 17.539062 299.640625 19.34375 C 298.359375 18.214844 297.679688 16.933594 297.679688 15.652344 Z M 337.113281 23.265625 C 338.019531 16.785156 337.113281 12.261719 334.550781 9.773438 C 332.511719 7.8125 329.949219 7.8125 329.121094 7.886719 C 329.722656 7.363281 331.308594 5.925781 330.855469 4.496094 C 330.628906 3.59375 329.648438 2.988281 327.914062 2.613281 C 327.160156 1.933594 326.105469 1.40625 324.75 1.253906 C 323.390625 0.578125 321.578125 0.125 319.09375 0.199219 C 314.570312 0.351562 312.382812 1.558594 310.496094 2.988281 C 308.082031 2.988281 306.277344 2.386719 305.671875 0.125 L 304.917969 0.351562 C 305.59375 2.6875 307.328125 3.59375 309.515625 3.742188 C 307.933594 5.023438 306.347656 6.382812 303.484375 7.285156 C 302.050781 7.738281 300.921875 8.492188 300.167969 9.394531 C 298.734375 10.675781 296.773438 13.015625 296.851562 15.652344 C 296.925781 17.609375 298.132812 19.421875 300.46875 21.078125 C 301.75 22.964844 302.957031 23.71875 302.957031 23.71875 C 302.957031 23.71875 305.746094 13.617188 313.285156 9.695312 C 313.210938 9.773438 313.210938 9.921875 313.136719 10 C 312.53125 11.507812 312.835938 13.242188 314.117188 15.199219 L 314.71875 14.824219 C 313.589844 13.164062 313.285156 11.582031 313.816406 10.300781 C 313.964844 9.847656 314.265625 9.472656 314.570312 9.097656 C 317.886719 7.8125 321.957031 7.738281 327.011719 10.074219 C 327.085938 10.148438 329.875 12.9375 328.292969 13.242188 C 328.292969 13.242188 333.796875 21.757812 331.382812 27.863281 L 334.703125 25.753906 C 334.703125 25.753906 335.832031 25 336.964844 25.527344 C 337.035156 25.527344 337.113281 24.621094 337.113281 23.265625 " fill-opacity="1" fill-rule="nonzero"/><path fill="#b56951" d="M 319.847656 46.785156 C 319.394531 50.777344 307.558594 58.015625 307.558594 58.015625 C 308.234375 43.992188 320.226562 42.789062 319.847656 46.785156 " fill-opacity="1" fill-rule="nonzero"/><path fill="#ffffff" d="M 325.652344 35.25 C 326.105469 39.246094 322.410156 42.863281 317.507812 43.464844 C 312.53125 43.992188 308.160156 41.28125 307.707031 37.285156 C 307.253906 33.289062 310.949219 29.671875 315.851562 29.070312 C 320.753906 28.46875 325.199219 31.253906 325.652344 35.25 " fill-opacity="1" fill-rule="nonzero"/><path fill="#100f0d" d="M 317.132812 29.371094 C 316.753906 29.371094 316.300781 29.371094 315.925781 29.449219 C 311.175781 29.972656 307.628906 33.441406 308.082031 37.207031 C 308.3125 39.019531 309.363281 40.601562 311.101562 41.730469 C 312.910156 42.863281 315.097656 43.316406 317.433594 43.089844 C 322.183594 42.5625 325.726562 39.09375 325.277344 35.324219 C 325.050781 33.515625 323.996094 31.933594 322.261719 30.800781 C 320.753906 29.824219 319.015625 29.371094 317.132812 29.371094 Z M 316.152344 43.917969 C 314.117188 43.917969 312.230469 43.390625 310.644531 42.410156 C 308.6875 41.203125 307.480469 39.398438 307.253906 37.363281 C 306.800781 33.214844 310.574219 29.292969 315.773438 28.765625 C 318.261719 28.46875 320.675781 28.992188 322.636719 30.199219 C 324.597656 31.40625 325.804688 33.214844 326.03125 35.25 C 326.480469 39.398438 322.710938 43.316406 317.507812 43.84375 C 317.054688 43.84375 316.605469 43.917969 316.152344 43.917969 " fill-opacity="1" fill-rule="nonzero"/><path fill="#59c1b4" d="M 318.71875 54.546875 C 314.417969 55 311.554688 52.511719 311.101562 49.046875 L 308.914062 38.117188 C 308.539062 34.648438 311.703125 31.480469 316 31.027344 C 320.296875 30.578125 324.144531 32.988281 324.523438 36.382812 L 324.597656 47.613281 C 325.050781 51.078125 323.015625 54.09375 318.71875 54.546875 " fill-opacity="1" fill-rule="nonzero"/><path fill="#100f0d" d="M 317.359375 54.246094 C 317.28125 54.246094 317.207031 54.246094 317.132812 54.246094 C 317.054688 54.246094 316.980469 54.246094 316.90625 54.246094 C 314.644531 53.945312 312.835938 52.660156 312.683594 50.851562 C 312.53125 49.800781 312.984375 48.742188 313.964844 47.914062 C 314.945312 47.007812 316.300781 46.40625 317.808594 46.253906 C 318.113281 46.253906 318.414062 46.179688 318.71875 46.179688 C 321.429688 46.179688 323.617188 47.613281 323.839844 49.574219 C 323.996094 50.625 323.542969 51.683594 322.558594 52.511719 C 321.578125 53.414062 320.226562 54.019531 318.789062 54.167969 C 318.1875 54.246094 317.734375 54.246094 317.359375 54.246094 Z M 309.363281 38.117188 C 309.214844 36.609375 309.820312 35.023438 311.023438 33.742188 C 312.308594 32.460938 314.117188 31.632812 316.078125 31.40625 C 316.453125 31.332031 316.753906 31.332031 317.132812 31.332031 C 318.71875 31.332031 320.296875 31.78125 321.578125 32.535156 C 323.085938 33.515625 323.996094 34.875 324.21875 36.382812 L 324.296875 47.6875 C 324.371094 48.136719 324.371094 48.515625 324.296875 48.890625 C 323.617188 46.632812 320.753906 45.125 317.585938 45.425781 C 315.925781 45.578125 314.417969 46.253906 313.285156 47.3125 C 312.308594 48.214844 311.777344 49.269531 311.777344 50.324219 C 311.628906 49.871094 311.554688 49.496094 311.476562 48.96875 Z M 325.050781 47.613281 L 324.972656 36.304688 C 324.75 34.496094 323.691406 32.988281 322.035156 31.859375 C 320.375 30.800781 318.261719 30.351562 316.078125 30.578125 C 313.890625 30.800781 311.929688 31.707031 310.574219 33.140625 C 309.136719 34.570312 308.460938 36.304688 308.6875 38.117188 L 310.875 49.046875 C 311.101562 50.851562 311.929688 52.4375 313.363281 53.492188 C 314.417969 54.320312 315.773438 54.773438 317.28125 54.847656 C 317.507812 54.847656 317.660156 54.847656 317.886719 54.847656 C 318.1875 54.847656 318.488281 54.847656 318.867188 54.773438 L 318.941406 54.773438 C 322.9375 54.472656 325.503906 51.53125 325.050781 47.613281 " fill-opacity="1" fill-rule="nonzero"/><path fill="#b56951" d="M 321.050781 39.773438 C 321.050781 39.773438 324.070312 43.769531 319.394531 42.863281 C 319.394531 42.863281 321.203125 44.445312 319.015625 44.671875 C 316.753906 44.898438 312.835938 45.351562 312.835938 45.351562 C 312.835938 45.351562 312.003906 52.886719 308.382812 57.109375 C 308.382812 57.109375 306.953125 65.703125 304.085938 69.621094 C 302.351562 72.035156 295.941406 62.914062 295.941406 62.914062 L 303.710938 49.117188 C 304.085938 44.746094 304.765625 38.039062 305.746094 36.53125 C 307.179688 34.121094 308.539062 29.824219 310.121094 29.671875 C 311.777344 29.597656 313.890625 29.449219 314.71875 29.671875 C 315.546875 29.898438 317.433594 31.179688 317.507812 31.554688 C 317.507812 31.933594 316 33.894531 312.457031 32.234375 L 311.554688 32.308594 L 310.800781 34.570312 C 312.457031 33.816406 314.417969 33.140625 315.472656 33.289062 C 317.359375 33.59375 321.957031 35.324219 322.332031 38.1875 C 322.710938 41.203125 321.050781 39.773438 321.050781 39.773438 " fill-opacity="1" fill-rule="nonzero"/><path fill="#100f0d" d="M 321.65625 41.65625 C 321.507812 41.054688 321.128906 40.378906 320.824219 40.074219 C 320.601562 39.921875 320.296875 39.695312 319.921875 39.46875 C 319.921875 40 320.148438 41.054688 320.675781 41.507812 C 320.980469 41.65625 321.277344 41.730469 321.65625 41.65625 Z M 322.035156 38.714844 C 322.035156 38.644531 322.035156 38.644531 322.035156 38.566406 C 322.035156 38.039062 321.804688 37.363281 320.753906 36.304688 C 320.753906 36.832031 320.824219 37.664062 321.203125 38.1875 C 321.429688 38.492188 321.734375 38.644531 322.035156 38.714844 Z M 321.882812 40.300781 C 322.261719 40.902344 322.558594 41.808594 322.261719 42.636719 C 322.183594 42.9375 321.957031 43.089844 321.65625 43.238281 C 321.429688 43.316406 321.203125 43.390625 320.902344 43.390625 C 320.753906 43.390625 320.601562 43.390625 320.375 43.390625 C 320.523438 43.617188 320.523438 43.84375 320.449219 44.070312 C 320.070312 45.5 315.246094 45.726562 312.835938 45.804688 L 311.476562 46.480469 L 311.175781 45.804688 L 312.53125 45.125 L 312.53125 45.050781 C 314.871094 44.972656 317.132812 44.746094 318.488281 44.445312 C 317.359375 44.144531 316.527344 43.164062 316.453125 43.089844 L 317.054688 42.636719 C 317.054688 42.636719 318.414062 44.21875 319.695312 43.769531 C 319.621094 43.691406 319.472656 43.542969 319.167969 43.316406 C 319.09375 43.316406 314.71875 40.753906 312.15625 41.730469 C 309.515625 42.710938 308.539062 44.21875 308.539062 44.21875 L 307.933594 43.769531 C 308.007812 43.691406 309.066406 42.035156 311.929688 40.976562 C 314.039062 40.148438 316.980469 41.355469 318.5625 42.109375 C 319.394531 42.410156 320.824219 42.863281 321.429688 42.636719 C 321.507812 42.5625 321.578125 42.5625 321.578125 42.484375 C 321.507812 42.484375 321.429688 42.484375 321.355469 42.484375 C 320.980469 42.484375 320.601562 42.410156 320.296875 42.183594 C 319.242188 41.355469 319.242188 39.46875 319.242188 39.398438 L 319.769531 39.398438 C 318.339844 38.417969 316.226562 37.136719 315.246094 36.984375 C 313.964844 36.832031 310.949219 38.117188 309.890625 38.566406 L 309.59375 37.890625 C 309.742188 37.8125 313.664062 36.078125 315.398438 36.230469 C 317.054688 36.382812 320.980469 39.246094 321.429688 39.546875 L 321.507812 39.625 C 321.507812 39.625 321.578125 39.695312 321.65625 39.773438 C 321.734375 39.695312 321.804688 39.625 321.957031 39.46875 C 321.507812 39.398438 321.128906 39.167969 320.824219 38.792969 C 319.996094 37.738281 320.226562 35.929688 320.226562 35.855469 C 319.996094 35.628906 319.695312 35.476562 319.316406 35.25 L 319.769531 34.648438 C 321.957031 36.078125 323.015625 37.511719 323.015625 38.714844 C 322.789062 39.546875 322.183594 40.148438 321.882812 40.300781 Z M 309.136719 56.507812 C 310.574219 55.148438 311.628906 52.058594 311.777344 51.683594 L 311.101562 51.457031 C 310.722656 52.585938 309.441406 55.675781 308.234375 56.355469 L 308.460938 56.808594 C 307.558594 60.125 305.144531 68.417969 303.710938 69.621094 L 304.238281 70.152344 C 305.898438 68.644531 308.3125 60.125 309.066406 57.410156 L 309.136719 57.488281 L 314.191406 53.945312 L 313.738281 53.339844 Z M 304.085938 49.34375 L 296.246094 63.140625 L 295.566406 62.761719 L 303.332031 49.046875 C 303.410156 48.136719 304.238281 40.828125 304.613281 38.714844 C 304.691406 38.339844 304.839844 38.039062 305.066406 37.664062 L 304.839844 37.585938 C 304.839844 37.585938 306.046875 34.347656 307.785156 31.554688 C 309.59375 28.539062 314.265625 29.21875 314.492188 29.21875 L 314.417969 29.671875 L 314.644531 29.597656 C 314.644531 29.671875 314.945312 31.480469 316.605469 31.859375 C 316.980469 31.480469 317.054688 31.105469 317.054688 31.105469 L 317.808594 31.332031 C 317.808594 31.40625 317.507812 32.460938 316.300781 33.0625 C 315.773438 33.367188 315.097656 33.515625 314.417969 33.515625 C 313.738281 33.515625 312.984375 33.367188 312.15625 33.140625 L 312.382812 32.386719 C 313.816406 32.839844 315.019531 32.839844 315.925781 32.460938 C 314.71875 31.933594 314.117188 30.726562 313.964844 29.972656 C 312.835938 29.898438 309.667969 29.898438 308.460938 32.007812 C 307.40625 33.742188 306.574219 35.550781 306.121094 36.757812 C 307.785156 35.402344 310.269531 34.570312 310.644531 34.421875 L 310.875 35.101562 C 309.441406 35.628906 305.671875 37.207031 305.367188 38.941406 C 304.992188 41.128906 304.085938 49.195312 304.085938 49.34375 " fill-opacity="1" fill-rule="nonzero"/><path fill="#f7ccc6" d="M 250.628906 283.765625 C 240.597656 300.199219 234.867188 289.421875 232.757812 283.617188 C 234.265625 277.210938 236.453125 267.488281 236.453125 267.488281 C 241.125 269.144531 247.234375 267.488281 247.234375 267.488281 C 247.234375 267.488281 249.421875 277.585938 250.628906 283.765625 " fill-opacity="1" fill-rule="nonzero"/><path fill="#59c1b4" d="M 251.457031 288.367188 C 251.53125 290.101562 245.046875 305.023438 242.710938 305.625 C 240.371094 306.230469 231.023438 289.945312 231.476562 289.042969 C 231.628906 288.742188 232.15625 286.554688 232.832031 283.617188 C 234.945312 289.421875 240.597656 300.121094 250.703125 283.765625 C 251.15625 286.105469 251.457031 287.914062 251.457031 288.367188 " fill-opacity="1" fill-rule="nonzero"/><path fill="#100f0d" d="M 249.421875 276.078125 L 247.613281 267.488281 L 246.859375 267.636719 L 248.667969 276.230469 Z M 249.949219 294.019531 L 249.269531 293.714844 C 251.457031 289.042969 251.003906 286.027344 250.628906 284.746094 C 249.570312 286.78125 246.179688 292.285156 241.351562 292.886719 C 236.679688 293.492188 233.890625 287.6875 232.910156 285.046875 L 232.003906 288.894531 C 231.929688 289.195312 232.003906 289.496094 232.078125 289.796875 C 235.546875 296.882812 240.449219 305.175781 242.785156 305.324219 L 242.710938 306.078125 C 239.46875 305.851562 233.738281 294.847656 231.402344 290.175781 C 231.175781 289.722656 231.097656 289.269531 231.25 288.742188 L 232.457031 283.617188 L 236.152344 267.488281 L 236.90625 267.636719 L 233.285156 283.691406 C 233.585938 284.671875 236.300781 292.738281 241.351562 292.136719 C 246.78125 291.453125 250.402344 283.765625 250.402344 283.691406 L 250.703125 283.089844 L 251.078125 283.691406 C 251.078125 283.765625 253.191406 287.234375 249.949219 294.019531 " fill-opacity="1" fill-rule="nonzero"/><path fill="#100f0d" d="M 241.878906 134.371094 L 219.1875 134.371094 L 219.1875 133.617188 L 241.878906 133.617188 Z M 237.128906 149.144531 C 236.828125 149.296875 236.527344 149.296875 236.375 149.21875 C 235.546875 148.765625 233.664062 143.566406 232.605469 139.949219 L 232.304688 138.140625 L 231.929688 139.949219 C 230.71875 143.644531 227.929688 149.21875 225.894531 148.84375 C 224.160156 148.464844 223.105469 147.109375 222.652344 146.355469 C 221.898438 145.074219 221.75 143.941406 221.898438 143.339844 C 222.203125 142.4375 227.253906 139.042969 231.929688 136.253906 C 236 138.140625 242.03125 141.683594 241.503906 143.566406 C 240.828125 145.976562 238.5625 148.542969 237.128906 149.144531 Z M 238.636719 154.417969 L 235.398438 155.550781 L 233.585938 145.222656 C 234.417969 147.410156 235.320312 149.597656 236.074219 149.972656 C 236.226562 150.050781 236.453125 150.125 236.601562 150.125 C 236.828125 150.125 237.128906 150.050781 237.433594 149.898438 C 237.507812 149.898438 237.582031 149.824219 237.582031 149.824219 Z M 228.535156 155.171875 L 225.066406 154.417969 L 226.800781 149.597656 C 228.457031 149.070312 229.894531 146.65625 231.023438 144.398438 Z M 242.183594 143.792969 C 243.089844 140.628906 233.210938 136.027344 232.003906 135.5 L 231.851562 135.425781 L 231.703125 135.5 C 230.042969 136.480469 221.597656 141.53125 221.144531 143.113281 C 220.84375 144.019531 221.222656 145.449219 221.976562 146.730469 C 222.503906 147.636719 223.710938 149.144531 225.746094 149.597656 C 225.820312 149.597656 225.894531 149.597656 225.894531 149.597656 L 224.011719 154.871094 L 229.0625 156.003906 L 232.230469 141.980469 L 234.792969 156.53125 L 239.546875 154.949219 L 238.261719 149.371094 C 239.921875 148.238281 241.652344 145.828125 242.183594 143.792969 Z M 232.230469 177.484375 Z M 260.808594 176.433594 L 249.570312 219.394531 L 249.121094 266.203125 C 248.289062 266.507812 245.5 267.410156 242.40625 267.789062 L 241.503906 228.363281 L 240.75 228.363281 L 241.652344 267.789062 C 238.5625 268.015625 235.320312 267.5625 233.8125 265.074219 C 233.4375 262.433594 224.160156 195.726562 235.847656 168.214844 L 235.171875 167.914062 C 233.964844 170.703125 233.058594 173.792969 232.230469 177.257812 L 216.242188 160.449219 L 215.71875 160.980469 L 230.796875 176.730469 L 223.179688 173.640625 L 222.878906 174.320312 L 232.078125 178.089844 C 227.554688 198.96875 229.367188 229.796875 231.175781 248.644531 C 217.375 229.042969 203.046875 168.96875 202.898438 168.363281 L 202.144531 168.515625 C 202.292969 169.117188 217.148438 231.53125 231.25 250.152344 C 232.15625 259.121094 232.984375 265.074219 232.984375 265.226562 L 233.058594 265.375 C 234.492188 267.789062 237.28125 268.542969 240.222656 268.542969 C 244.671875 268.542969 249.269531 266.808594 249.570312 266.65625 L 249.796875 266.582031 L 250.25 219.394531 L 261.484375 176.503906 L 260.808594 176.433594 " fill-opacity="1" fill-rule="nonzero"/><path fill="#ffffff" d="M 241.878906 133.691406 L 220.164062 133.691406 L 220.164062 133.3125 L 223.40625 88.464844 C 223.40625 88.464844 227.480469 92.765625 231.175781 91.933594 C 231.402344 91.855469 231.628906 91.855469 231.851562 91.785156 C 232.003906 91.707031 232.15625 91.707031 232.304688 91.632812 C 232.457031 91.554688 232.605469 91.480469 232.832031 91.40625 C 232.984375 91.328125 233.058594 91.257812 233.210938 91.257812 C 233.285156 91.179688 233.4375 91.101562 233.511719 91.101562 C 233.738281 91.03125 233.890625 90.878906 234.113281 90.726562 C 234.191406 90.652344 234.265625 90.574219 234.417969 90.503906 C 234.492188 90.425781 234.566406 90.347656 234.644531 90.277344 C 236.152344 89.144531 237.128906 87.710938 237.433594 87.261719 C 237.433594 87.183594 237.507812 87.183594 237.507812 87.183594 L 241.878906 133.390625 L 241.878906 133.691406 " fill-opacity="1" fill-rule="nonzero"/><path fill="#100f0d" d="M 231.703125 101.207031 C 231.703125 101.582031 231.402344 101.808594 231.097656 101.808594 C 230.71875 101.808594 230.496094 101.503906 230.496094 101.207031 C 230.496094 100.902344 230.796875 100.601562 231.097656 100.601562 C 231.402344 100.523438 231.703125 100.828125 231.703125 101.207031 Z M 232.457031 101.207031 C 232.457031 100.453125 231.851562 99.847656 231.097656 99.847656 C 230.34375 99.847656 229.742188 100.453125 229.742188 101.207031 C 229.742188 101.960938 230.34375 102.5625 231.097656 102.5625 C 231.851562 102.5625 232.457031 101.960938 232.457031 101.207031 Z M 235.699219 101.960938 C 233.4375 101.960938 231.703125 97.886719 230.949219 95.550781 C 230.496094 97.511719 229.367188 100.75 227.402344 101.730469 C 224.539062 103.164062 220.769531 96.832031 220.316406 96.15625 L 220.996094 95.777344 C 222.050781 97.585938 225.21875 102.03125 227.105469 101.054688 C 229.515625 99.847656 230.496094 94.042969 230.496094 93.96875 L 230.796875 92.234375 L 231.25 93.96875 C 231.777344 96.078125 233.664062 101.433594 235.773438 101.207031 C 237.882812 101.054688 240.144531 95.851562 240.828125 93.894531 L 241.503906 94.117188 C 241.203125 94.871094 238.789062 101.65625 235.773438 101.882812 C 235.773438 101.960938 235.773438 101.960938 235.699219 101.960938 " fill-opacity="1" fill-rule="nonzero"/><path fill="#59c1b4" d="M 224.613281 141.457031 L 220.84375 124.269531 L 223.484375 87.183594 C 199.882812 90.878906 195.433594 120.726562 195.433594 120.726562 C 188.800781 138.742188 197.242188 149.746094 197.242188 149.746094 C 197.242188 149.746094 194.378906 182.839844 197.242188 183.0625 C 199.65625 183.214844 204.707031 173.71875 219.863281 169.648438 L 220.089844 146.203125 C 222.957031 143.792969 224.613281 141.457031 224.613281 141.457031 Z M 269.550781 154.644531 C 269.550781 154.644531 272.644531 183.140625 270.683594 183.140625 C 269.175781 183.140625 259.148438 173.113281 244.144531 169.421875 L 241.808594 133.3125 L 237.433594 87.109375 L 237.433594 86.957031 C 245.5 88.089844 252.285156 92.011719 257.566406 100.902344 L 263.445312 98.867188 C 263.445312 98.867188 278.675781 132.9375 268.574219 143.191406 C 268.953125 146.808594 269.328125 150.578125 269.550781 154.644531 " fill-opacity="1" fill-rule="nonzero"/><path fill="#100f0d" d="M 220.617188 117.335938 C 220.617188 115.074219 222.277344 113.265625 224.464844 112.960938 L 224.464844 121.105469 C 224.464844 121.332031 224.464844 121.558594 224.539062 121.785156 C 222.277344 121.480469 220.617188 119.597656 220.617188 117.335938 Z M 238.863281 110.101562 L 224.464844 110.101562 C 224.464844 110.25 224.464844 110.476562 224.464844 110.628906 L 224.464844 111.453125 C 221.449219 111.757812 219.109375 114.320312 219.109375 117.410156 C 219.109375 120.726562 221.75 123.363281 225.066406 123.363281 C 225.820312 124.644531 227.175781 125.476562 228.761719 125.476562 L 234.644531 125.476562 C 236.980469 125.476562 238.941406 123.515625 238.941406 121.179688 L 238.941406 110.628906 C 238.941406 110.402344 238.941406 110.25 238.863281 110.101562 " fill-opacity="1" fill-rule="nonzero"/><path fill="#f7ccc6" d="M 222.203125 130.527344 C 224.765625 130.453125 226.875 126.53125 226.875 126.53125 C 226.875 126.53125 234.113281 123.214844 234.113281 122.085938 C 234.113281 120.953125 232.910156 121.03125 232.910156 121.03125 C 232.910156 121.03125 234.191406 121.253906 234.867188 120.050781 C 235.546875 118.84375 233.4375 118.917969 233.4375 118.917969 C 233.4375 118.917969 235.320312 118.992188 235.472656 117.636719 C 235.699219 116.355469 233.890625 116.65625 233.890625 116.65625 C 233.890625 116.65625 235.546875 116.28125 235.171875 115.074219 C 234.792969 113.941406 226.273438 113.871094 224.613281 115.074219 C 222.957031 116.28125 221.070312 125.175781 221.070312 125.175781 Z M 254.472656 102.257812 L 254.023438 96.378906 C 254.023438 96.378906 248.96875 91.257812 248.515625 89.898438 C 248.0625 88.542969 246.859375 84.546875 248.214844 83.792969 C 249.648438 83.039062 251.457031 88.542969 251.457031 88.542969 L 253.644531 89.671875 C 253.644531 89.671875 256.058594 75.5 257.863281 74.144531 C 259.675781 72.789062 259.375 75.273438 259.375 75.273438 C 259.375 75.273438 259.902344 73.765625 260.957031 73.765625 C 262.011719 73.765625 261.5625 75.878906 261.5625 75.878906 C 261.5625 75.878906 262.089844 74.746094 263.070312 74.824219 C 264.050781 74.898438 262.992188 80.855469 262.390625 84.320312 C 262.390625 84.320312 263.746094 80.023438 264.878906 79.722656 C 266.007812 79.417969 264.804688 87.035156 261.863281 94.796875 L 262.691406 99.246094 L 254.472656 102.257812 " fill-opacity="1" fill-rule="nonzero"/><path fill="#59c1b4" d="M 234.792969 116.882812 C 234.191406 116.203125 232.683594 116.882812 232.683594 116.882812 C 232.832031 119.144531 235.398438 117.5625 234.792969 116.882812 Z M 233.4375 121.105469 C 232.230469 120.804688 231.25 121.855469 231.25 121.855469 C 232.382812 123.066406 234.644531 121.332031 233.4375 121.105469 Z M 234.417969 118.992188 C 233.4375 118.691406 232.304688 119.070312 232.304688 119.070312 C 233.359375 120.578125 235.320312 119.21875 234.417969 118.992188 Z M 234.039062 115.449219 C 232.832031 115.601562 232.304688 114.246094 232.304688 114.246094 C 236.300781 114.246094 235.246094 115.300781 234.039062 115.449219 " fill-opacity="1" fill-rule="nonzero"/><path fill="#100f0d" d="M 265.332031 79.574219 C 265.253906 79.417969 265.027344 79.347656 264.878906 79.347656 C 264.425781 79.347656 263.972656 79.796875 263.597656 80.476562 C 263.972656 78.289062 264.199219 76.105469 263.824219 75.273438 C 263.519531 74.597656 263.144531 74.445312 262.84375 74.445312 C 262.542969 74.445312 262.238281 74.597656 261.9375 74.824219 C 261.863281 74.371094 261.789062 73.84375 261.5625 73.617188 C 261.410156 73.464844 261.257812 73.390625 261.035156 73.390625 C 260.503906 73.390625 260.054688 73.84375 259.75 74.21875 C 259.675781 73.84375 259.449219 73.464844 259.148438 73.316406 C 258.773438 73.164062 258.394531 73.316406 258.019531 73.765625 L 257.941406 73.84375 C 257.792969 74.070312 255.003906 78.820312 253.496094 89.144531 L 251.910156 88.316406 C 251.53125 87.183594 250.023438 83.039062 248.214844 83.492188 C 247.914062 83.566406 247.6875 83.71875 247.535156 84.019531 C 246.707031 85.449219 248.0625 89.59375 248.214844 90.050781 L 248.289062 90.125 C 248.742188 90.726562 252.8125 96.003906 253.871094 96.683594 L 254.25 96.078125 C 253.496094 95.625 250.628906 92.011719 248.894531 89.75 C 248.367188 88.089844 247.6875 85.226562 248.140625 84.394531 C 248.214844 84.246094 248.289062 84.246094 248.367188 84.246094 C 249.269531 84.019531 250.550781 86.808594 251.230469 88.691406 L 251.304688 88.84375 L 255.90625 91.257812 L 256.285156 90.574219 L 254.25 89.523438 C 255.679688 79.574219 258.394531 74.671875 258.621094 74.21875 C 258.847656 73.992188 258.921875 73.992188 258.921875 73.992188 C 259.074219 74.070312 259.222656 74.746094 259.222656 75.199219 L 257.1875 85.675781 L 257.941406 85.828125 L 259.902344 75.5 C 260.203125 74.972656 260.730469 74.21875 261.109375 74.21875 C 261.257812 74.371094 261.335938 75.125 261.335938 75.878906 L 259.902344 85.449219 L 260.65625 85.527344 L 262.089844 76.179688 L 262.164062 76.179688 C 262.164062 76.105469 262.164062 76.027344 262.164062 75.953125 C 262.390625 75.652344 262.765625 75.199219 262.992188 75.199219 C 263.070312 75.199219 263.21875 75.351562 263.371094 75.578125 C 263.824219 76.480469 263.070312 80.777344 262.390625 83.941406 C 262.316406 84.167969 262.316406 84.320312 262.238281 84.546875 C 262.011719 85.226562 261.5625 87.109375 262.390625 87.636719 L 262.765625 87.035156 C 262.617188 86.882812 262.617188 86.203125 262.765625 85.375 C 262.765625 85.300781 262.84375 85.074219 262.917969 84.847656 L 262.917969 84.773438 C 262.917969 84.621094 262.992188 84.394531 263.070312 84.246094 C 263.671875 82.359375 264.5 80.625 264.878906 80.25 C 265.105469 81.757812 263.597656 90.199219 261.5625 95.097656 L 261.484375 95.175781 L 262.464844 99.320312 L 263.21875 99.171875 L 262.316406 95.25 C 264.125 90.425781 266.085938 80.703125 265.332031 79.574219 Z M 260.503906 94.796875 L 260.65625 96.003906 L 261.410156 95.929688 L 261.257812 94.722656 Z M 231.476562 114.621094 L 231.476562 113.871094 C 230.875 113.871094 225.894531 113.714844 224.539062 114.621094 C 223.03125 115.601562 223.332031 116.882812 223.332031 116.957031 L 224.085938 116.808594 C 224.085938 116.808594 223.933594 115.976562 224.992188 115.222656 C 225.972656 114.621094 229.964844 114.621094 231.476562 114.621094 Z M 225.820312 126.605469 L 226.648438 126.90625 L 226.875 126.230469 L 226.046875 125.929688 Z M 227.105469 122.382812 L 227.632812 122.914062 C 228.007812 122.460938 230.421875 121.933594 231.929688 121.707031 L 231.777344 120.953125 C 231.175781 121.03125 227.78125 121.628906 227.105469 122.382812 Z M 226.574219 119.824219 L 227.105469 120.351562 C 227.554688 119.898438 230.34375 119.445312 232.230469 119.21875 L 232.15625 118.464844 C 231.324219 118.617188 227.402344 118.992188 226.574219 119.824219 Z M 232.304688 116.203125 L 232.304688 116.957031 C 231.023438 116.882812 227.480469 117.035156 226.421875 117.9375 L 225.972656 117.335938 C 227.402344 116.054688 232.15625 116.203125 232.304688 116.203125 " fill-opacity="1" fill-rule="nonzero"/><path fill="#100f0d" d="M 198.675781 176.433594 L 199.429688 176.433594 L 199.429688 181.632812 L 198.675781 181.632812 Z M 202.222656 173.792969 L 202.976562 173.792969 L 202.976562 179.070312 L 202.222656 179.070312 Z M 206.140625 170.851562 L 206.894531 170.851562 L 206.894531 175.902344 L 206.140625 175.902344 Z M 210.515625 168.589844 L 211.269531 168.589844 L 211.269531 173.261719 L 210.515625 173.261719 Z M 214.960938 166.257812 L 215.71875 166.257812 L 215.71875 170.851562 L 214.960938 170.851562 Z M 223.632812 137.914062 L 224.085938 138.515625 L 218.054688 143.488281 L 217.601562 142.890625 Z M 215.191406 138.667969 L 222.804688 133.917969 L 223.179688 134.519531 L 215.566406 139.269531 Z M 213.304688 134.820312 L 222.050781 130.148438 L 222.425781 130.828125 L 213.679688 135.5 Z M 211.492188 131.28125 L 221.222656 126.53125 L 221.523438 127.210938 L 211.796875 131.960938 Z M 199.203125 133.3125 L 210.890625 127.964844 C 209.382812 126.90625 204.632812 123.890625 201.089844 124.195312 L 201.011719 123.441406 C 204.179688 123.214844 207.949219 125.175781 210.136719 126.53125 L 204.257812 99.171875 L 205.011719 99.019531 L 211.042969 127.132812 C 211.34375 127.359375 211.570312 127.511719 211.71875 127.585938 L 216.699219 125.25 C 213.15625 114.621094 217.226562 89.75 217.453125 88.691406 L 218.207031 88.84375 C 218.128906 89.070312 213.980469 114.46875 217.453125 125.023438 L 220.769531 123.515625 L 221.070312 124.195312 L 217.679688 125.777344 L 217.679688 125.851562 L 217 126.152344 L 199.582031 134.144531 Z M 219.789062 145.976562 L 220.390625 146.429688 C 220.164062 146.730469 214.585938 153.214844 207.722656 154.195312 C 204.707031 155.777344 201.46875 157.964844 201.46875 158.71875 C 201.390625 160.226562 201.46875 166.707031 201.46875 166.78125 L 200.714844 166.78125 C 200.714844 166.480469 200.636719 160.226562 200.714844 158.71875 C 200.785156 157.433594 203.878906 155.476562 205.914062 154.347656 C 202.898438 154.347656 200.03125 153.066406 197.621094 150.652344 C 196.488281 165.652344 196.113281 181.78125 197.542969 182.761719 L 197.09375 183.367188 C 194.605469 181.707031 196.488281 155.023438 196.941406 149.746094 L 197.015625 148.84375 L 197.621094 149.519531 C 200.109375 152.3125 202.976562 153.664062 206.140625 153.59375 C 213.304688 153.515625 219.714844 146.054688 219.789062 145.976562 Z M 248.742188 165.503906 L 249.496094 165.503906 L 249.496094 170.929688 L 248.742188 170.929688 Z M 253.339844 166.855469 L 254.09375 166.855469 L 254.09375 172.886719 L 253.339844 172.886719 Z M 256.886719 168.0625 L 257.640625 168.0625 L 257.640625 174.546875 L 256.886719 174.546875 Z M 260.429688 169.421875 L 261.183594 169.421875 L 261.183594 176.503906 L 260.429688 176.503906 Z M 265.105469 171.078125 L 265.480469 179.371094 L 264.726562 179.371094 L 264.351562 171.078125 Z M 244.144531 88.542969 C 244.371094 90.199219 249.570312 128.71875 244.144531 141.605469 L 243.464844 141.304688 C 248.816406 128.566406 243.464844 88.996094 243.464844 88.617188 Z M 260.808594 114.09375 L 258.695312 100.523438 L 259.449219 100.375 L 261.5625 113.941406 Z M 265.027344 112.285156 L 261.257812 99.621094 L 262.011719 99.394531 L 265.78125 112.058594 Z M 264.351562 165.503906 L 264.351562 156.605469 C 263.445312 155.023438 254.847656 151.78125 249.648438 150.050781 L 249.875 149.296875 C 251.304688 149.746094 264.050781 153.890625 265.105469 156.304688 L 265.105469 165.425781 L 264.351562 165.425781 Z M 257.714844 148.316406 C 258.394531 148.617188 259.074219 148.765625 259.828125 148.765625 C 262.390625 148.765625 265.40625 147.035156 268.796875 143.488281 L 268.269531 142.960938 C 264.125 147.257812 260.65625 148.84375 257.941406 147.636719 C 248.59375 143.417969 250.855469 107.160156 251.078125 103.917969 L 252.363281 103.390625 L 252.964844 115.148438 L 253.71875 115.148438 L 253.117188 103.316406 L 252.742188 103.316406 L 255.679688 102.1875 L 256.285156 114.847656 L 257.039062 114.847656 L 256.433594 101.960938 L 257.714844 101.433594 L 257.414062 100.75 L 250.402344 103.539062 L 250.402344 103.765625 C 250.25 105.273438 247.460938 143.714844 257.714844 148.316406 Z M 268.347656 182.007812 L 267.820312 172.964844 L 268.574219 172.886719 L 269.101562 181.933594 L 268.347656 182.007812 " fill-opacity="1" fill-rule="nonzero"/></svg>